<?xml version="1.0" encoding="UTF-8" standalone="no"?>
<!-- Created with Inkscape (http://www.inkscape.org/) -->

<svg
   width="11.173166mm"
   height="10.607725mm"
   viewBox="0 0 11.173167 10.607726"
   version="1.1"
   id="svg5"
   xml:space="preserve"
   sodipodi:docname="Aumento_del_nivel_del_mar_6ft.svg"
   inkscape:version="1.2 (dc2aedaf03, 2022-05-15)"
   xmlns:inkscape="http://www.inkscape.org/namespaces/inkscape"
   xmlns:sodipodi="http://sodipodi.sourceforge.net/DTD/sodipodi-0.dtd"
   xmlns="http://www.w3.org/2000/svg"
   xmlns:svg="http://www.w3.org/2000/svg"><sodipodi:namedview
     id="namedview10"
     pagecolor="#ffffff"
     bordercolor="#111111"
     borderopacity="1"
     inkscape:showpageshadow="0"
     inkscape:pageopacity="0"
     inkscape:pagecheckerboard="1"
     inkscape:deskcolor="#d1d1d1"
     inkscape:document-units="mm"
     showgrid="false"
     inkscape:zoom="9.302101"
     inkscape:cx="11.664032"
     inkscape:cy="18.167939"
     inkscape:window-width="1920"
     inkscape:window-height="1009"
     inkscape:window-x="1912"
     inkscape:window-y="-8"
     inkscape:window-maximized="1"
     inkscape:current-layer="layer1"
     showborder="true"
     showguides="true"><sodipodi:guide
       position="-1.0685791,2.6230559"
       orientation="0,-1"
       id="guide1258"
       inkscape:locked="false" /><sodipodi:guide
       position="-1.0685791,10.627839"
       orientation="0,-1"
       id="guide1260"
       inkscape:locked="false" /><sodipodi:guide
       position="-1.0685791,-1.0826758"
       orientation="0,-1"
       id="guide1262"
       inkscape:locked="false" /><sodipodi:guide
       position="-1.0685791,2.0599054"
       orientation="0,-1"
       id="guide1264"
       inkscape:locked="false" /><sodipodi:guide
       position="-1.0685791,2.9247437"
       orientation="1,0"
       id="guide1266"
       inkscape:locked="false" /><sodipodi:guide
       position="12.114748,-3.6240338"
       orientation="1,0"
       id="guide1268"
       inkscape:locked="false" /><sodipodi:guide
       position="-1.0685791,-3.6240338"
       orientation="0,-1"
       id="guide1282"
       inkscape:locked="false" /></sodipodi:namedview><defs
     id="defs2"><rect
       x="0"
       y="30.236219"
       width="49.826744"
       height="23.62912"
       id="rect1278" /><rect
       x="0"
       y="30.236219"
       width="49.826744"
       height="23.62912"
       id="rect1272" /><rect
       x="323.62149"
       y="418.40601"
       width="65.480019"
       height="33.252281"
       id="rect629-1" /><rect
       x="323.62149"
       y="418.40601"
       width="73.119499"
       height="44.684135"
       id="rect629-1-8" /><rect
       x="323.62149"
       y="418.40601"
       width="73.119499"
       height="44.684135"
       id="rect629-1-3" /></defs><g
     id="layer1"
     transform="translate(-102.35307,-105.2688)"
     style="display:inline"><text
       xml:space="preserve"
       transform="matrix(0.26458333,0,0,0.26458333,101.28449,105.24869)"
       id="text1270"
       style="font-style:normal;font-weight:normal;font-size:8px;line-height:1.25;font-family:sans-serif;letter-spacing:0px;word-spacing:0px;white-space:pre;shape-inside:url(#rect1272);display:inline;fill:#000000;fill-opacity:1;stroke:none" /><text
       xml:space="preserve"
       transform="matrix(0.23851842,0,0,0.23851842,25.030833,13.468108)"
       id="text627-8"
       style="font-style:normal;font-variant:normal;font-weight:normal;font-stretch:normal;font-size:11.8323px;line-height:1.25;font-family:Montserrat;-inkscape-font-specification:'Montserrat, Normal';font-variant-ligatures:normal;font-variant-caps:normal;font-variant-numeric:normal;font-variant-east-asian:normal;letter-spacing:0px;word-spacing:0px;white-space:pre;shape-inside:url(#rect629-1-3);display:inline;fill:#000000;fill-opacity:1;stroke:none;stroke-width:1.10928"><tspan
         x="323.62109"
         y="429.28124"
         id="tspan3080"><tspan
           style="stroke-width:1.22658"
           id="tspan3078">SLR 6FT</tspan></tspan></text><g
       id="g2431"
       transform="matrix(0.800176,0,0,0.79741784,21.97608,20.537779)"
       style="display:inline;stroke-width:1.25188"><circle
         style="opacity:0.899123;fill:#00b1ff;fill-opacity:1;stroke:#00b1ff;stroke-width:1.20807;stroke-linecap:round;stroke-dasharray:none"
         id="path735-0"
         cx="107.43083"
         cy="111.27189"
         r="4.4111128" /><path
         style="fill:#027aff;stroke:none;stroke-width:1.25188"
         d="m 104.71916,112.59992 c 0.0335,0.0797 0.11083,0.15359 0.17102,0.21379 0.30726,0.30722 0.81947,0.37777 1.20677,0.18411 0.18861,-0.0943 0.29857,-0.24329 0.43235,-0.3979 0.0339,0.0804 0.1103,0.15307 0.17103,0.21379 0.30934,0.30934 0.82809,0.37953 1.21625,0.17931 0.0949,-0.0489 0.18774,-0.11543 0.26089,-0.19357 0.0588,-0.0628 0.10437,-0.13645 0.16195,-0.19953 0.0329,0.0856 0.12067,0.16577 0.18529,0.22822 0.309,0.29852 0.82149,0.36115 1.20201,0.16488 0.095,-0.0489 0.18771,-0.11543 0.26087,-0.19357 0.0589,-0.0628 0.10433,-0.1364 0.16197,-0.19953 0.0266,0.0693 0.0955,0.13821 0.14727,0.19003 0.1575,0.15776 0.34465,0.26137 0.56537,0.29814 0.12168,0.0203 0.34069,0.0473 0.34046,-0.13661 -10e-5,-0.0675 -0.0492,-0.13376 -0.11717,-0.14571 -0.0681,-0.0119 -0.13629,-0.008 -0.2043,-0.0248 -0.17391,-0.0435 -0.32072,-0.15123 -0.44139,-0.28082 -0.0446,-0.0478 -0.0853,-0.10188 -0.12069,-0.15677 -0.0496,-0.0771 -0.0977,-0.16967 -0.20757,-0.14302 -0.0723,0.0176 -0.097,0.0761 -0.13326,0.13352 -0.0406,0.0641 -0.0875,0.1243 -0.13835,0.18053 -0.17061,0.18856 -0.40868,0.30217 -0.66433,0.28464 -0.22772,-0.0156 -0.43562,-0.16071 -0.57673,-0.33215 -0.0744,-0.0905 -0.14239,-0.29484 -0.28796,-0.2686 -0.0778,0.0141 -0.10457,0.0753 -0.14278,0.13558 -0.0393,0.0621 -0.0842,0.12121 -0.13358,0.17578 -0.1708,0.18885 -0.41524,0.31371 -0.67383,0.289 -0.22445,-0.0215 -0.41993,-0.15455 -0.56335,-0.32225 -0.0396,-0.0462 -0.0754,-0.096 -0.108,-0.14729 -0.0427,-0.067 -0.0777,-0.13589 -0.16958,-0.13282 -0.0879,0.003 -0.12067,0.0726 -0.16179,0.13758 -0.0404,0.0638 -0.0863,0.12513 -0.13795,0.18053 -0.17578,0.1887 -0.40127,0.29621 -0.65997,0.28489 -0.22671,-0.01 -0.43581,-0.16055 -0.57681,-0.32764 -0.0723,-0.0857 -0.13924,-0.2842 -0.27361,-0.27403 -0.0997,0.008 -0.12796,0.0872 -0.17743,0.16001 -0.0596,0.0876 -0.13105,0.17174 -0.21215,0.24021 -0.10637,0.0898 -0.22897,0.15934 -0.36583,0.18898 -0.0894,0.0194 -0.21044,-0.007 -0.26976,0.0792 -0.0532,0.0773 -0.02,0.19556 0.0703,0.22754 0.0835,0.0296 0.20067,0.004 0.28505,-0.0128 0.19344,-0.0387 0.37386,-0.13583 0.51176,-0.27732 0.062,-0.0635 0.10993,-0.13678 0.16765,-0.20348"
         id="path1105-9"
         sodipodi:nodetypes="ccccscsccccccccccccccccccccscsscccssccsscscc" /><path
         style="fill:#027aff;stroke:none;stroke-width:1.25188"
         d="m 104.21589,110.46757 c 0.0391,0.0951 0.13139,0.18211 0.20276,0.25349 0.36428,0.36424 0.97157,0.44789 1.43075,0.21829 0.22362,-0.11204 0.35399,-0.28846 0.5126,-0.47178 0.0401,0.0958 0.1308,0.18149 0.20279,0.25349 0.36676,0.36677 0.98181,0.44998 1.44199,0.21258 0.11266,-0.0584 0.22259,-0.13685 0.30932,-0.22948 0.07,-0.074 0.12375,-0.16179 0.19204,-0.23659 0.0385,0.10103 0.14307,0.19654 0.21967,0.2706 0.36636,0.35392 0.97397,0.42818 1.42514,0.19547 0.11276,-0.0584 0.22253,-0.13685 0.30928,-0.22948 0.0701,-0.074 0.1237,-0.16174 0.19201,-0.23659 0.0317,0.0819 0.11335,0.16387 0.17463,0.22531 0.18671,0.18704 0.4086,0.3099 0.67032,0.35347 0.14425,0.0245 0.40392,0.0557 0.40364,-0.16196 -10e-5,-0.0801 -0.0587,-0.15859 -0.1389,-0.17275 -0.0807,-0.0146 -0.16161,-0.008 -0.24223,-0.029 -0.20619,-0.0519 -0.38025,-0.17927 -0.52332,-0.33293 -0.053,-0.0562 -0.10073,-0.12079 -0.14308,-0.18588 -0.0594,-0.0911 -0.11584,-0.20115 -0.2461,-0.16956 -0.0863,0.0204 -0.11506,0.0901 -0.15803,0.1583 -0.0476,0.076 -0.10415,0.14739 -0.164,0.21405 -0.2023,0.22357 -0.48455,0.35827 -0.78767,0.33746 -0.26998,-0.0184 -0.51645,-0.19054 -0.68374,-0.39379 -0.0884,-0.1073 -0.16885,-0.34958 -0.34143,-0.31845 -0.0918,0.0169 -0.12398,0.0893 -0.16927,0.16073 -0.0463,0.0733 -0.0996,0.14373 -0.15839,0.20841 -0.20252,0.22391 -0.49233,0.37196 -0.79892,0.34266 -0.26611,-0.0257 -0.49787,-0.18324 -0.6679,-0.38207 -0.0466,-0.0546 -0.0894,-0.11391 -0.12804,-0.17463 -0.0511,-0.0796 -0.0917,-0.16113 -0.20107,-0.15749 -0.10458,0.003 -0.14307,0.0866 -0.19184,0.16312 -0.0474,0.0755 -0.10177,0.14838 -0.16354,0.21405 -0.20841,0.22371 -0.47574,0.35119 -0.78246,0.33777 -0.2688,-0.0114 -0.51673,-0.19034 -0.68388,-0.38846 -0.0863,-0.10116 -0.16509,-0.33694 -0.32441,-0.3249 -0.11822,0.008 -0.15171,0.10384 -0.21037,0.18971 -0.0708,0.10425 -0.15536,0.20364 -0.25151,0.28481 -0.12612,0.10654 -0.27149,0.18892 -0.43374,0.22405 -0.10612,0.0236 -0.24951,-0.007 -0.31984,0.0942 -0.063,0.0913 -0.0242,0.23186 0.0829,0.2698 0.0989,0.0352 0.23792,0.004 0.33795,-0.0156 0.22936,-0.0457 0.44327,-0.16105 0.60678,-0.32881 0.0732,-0.0748 0.13033,-0.16217 0.19876,-0.24124"
         id="path1216"
         sodipodi:nodetypes="ccccscsccccccccccccccccccccscsscccssccsscscc" /></g></g></svg>
