<?xml version="1.0" encoding="UTF-8" standalone="no"?>
<!-- Created with Inkscape (http://www.inkscape.org/) -->

<svg
   width="11.046166mm"
   height="10.607721mm"
   viewBox="0 0 11.046167 10.607722"
   version="1.1"
   id="svg5"
   xml:space="preserve"
   sodipodi:docname="Aumento_del_nivel_del_mar_3ft.svg"
   inkscape:version="1.2 (dc2aedaf03, 2022-05-15)"
   xmlns:inkscape="http://www.inkscape.org/namespaces/inkscape"
   xmlns:sodipodi="http://sodipodi.sourceforge.net/DTD/sodipodi-0.dtd"
   xmlns="http://www.w3.org/2000/svg"
   xmlns:svg="http://www.w3.org/2000/svg"><sodipodi:namedview
     id="namedview10"
     pagecolor="#ffffff"
     bordercolor="#111111"
     borderopacity="1"
     inkscape:showpageshadow="0"
     inkscape:pageopacity="0"
     inkscape:pagecheckerboard="1"
     inkscape:deskcolor="#d1d1d1"
     inkscape:document-units="mm"
     showgrid="false"
     inkscape:zoom="13.155157"
     inkscape:cx="9.7680321"
     inkscape:cy="29.494136"
     inkscape:window-width="1920"
     inkscape:window-height="1009"
     inkscape:window-x="1912"
     inkscape:window-y="-8"
     inkscape:window-maximized="1"
     inkscape:current-layer="layer1"
     showborder="true"
     showguides="true"><sodipodi:guide
       position="-1.0685793,2.6230522"
       orientation="0,-1"
       id="guide1258"
       inkscape:locked="false" /><sodipodi:guide
       position="-1.0685793,10.627835"
       orientation="0,-1"
       id="guide1260"
       inkscape:locked="false" /><sodipodi:guide
       position="-1.0685793,-1.0826794"
       orientation="0,-1"
       id="guide1262"
       inkscape:locked="false" /><sodipodi:guide
       position="-1.0685793,2.0599017"
       orientation="0,-1"
       id="guide1264"
       inkscape:locked="false" /><sodipodi:guide
       position="-1.0685793,2.92474"
       orientation="1,0"
       id="guide1266"
       inkscape:locked="false" /><sodipodi:guide
       position="12.114748,-3.6240374"
       orientation="1,0"
       id="guide1268"
       inkscape:locked="false" /><sodipodi:guide
       position="-1.0685793,-3.6240374"
       orientation="0,-1"
       id="guide1282"
       inkscape:locked="false" /></sodipodi:namedview><defs
     id="defs2"><rect
       x="0"
       y="30.236219"
       width="49.826744"
       height="23.62912"
       id="rect1278" /><rect
       x="0"
       y="30.236219"
       width="49.826744"
       height="23.62912"
       id="rect1272" /><rect
       x="323.62149"
       y="418.40601"
       width="65.480019"
       height="33.252281"
       id="rect629-1" /><rect
       x="323.62149"
       y="418.40601"
       width="73.119499"
       height="44.684135"
       id="rect629-1-8" /><rect
       x="323.62149"
       y="418.40601"
       width="73.119499"
       height="44.684135"
       id="rect629-1-3" /></defs><g
     id="layer1"
     transform="translate(-102.35307,-105.2688)"
     style="display:inline"><text
       xml:space="preserve"
       transform="matrix(0.26458333,0,0,0.26458333,101.28449,105.24869)"
       id="text1270"
       style="font-style:normal;font-weight:normal;font-size:8px;line-height:1.25;font-family:sans-serif;letter-spacing:0px;word-spacing:0px;white-space:pre;shape-inside:url(#rect1272);display:inline;fill:#000000;fill-opacity:1;stroke:none" /><text
       xml:space="preserve"
       transform="matrix(0.23851842,0,0,0.23851842,25.030837,13.468108)"
       id="text627-8"
       style="font-style:normal;font-variant:normal;font-weight:normal;font-stretch:normal;font-size:11.8323px;line-height:1.25;font-family:Montserrat;-inkscape-font-specification:'Montserrat, Normal';font-variant-ligatures:normal;font-variant-caps:normal;font-variant-numeric:normal;font-variant-east-asian:normal;letter-spacing:0px;word-spacing:0px;white-space:pre;shape-inside:url(#rect629-1-3);display:inline;fill:#000000;fill-opacity:1;stroke:none;stroke-width:1.10928"><tspan
         x="323.62109"
         y="429.28124"
         id="tspan2954"><tspan
           style="stroke-width:1.22658"
           id="tspan2952">SLR 3FT</tspan></tspan></text><g
       id="g2593"
       transform="matrix(0.79741784,0,0,0.79741784,21.961339,20.962633)"
       style="display:inline;stroke-width:1.25405"><circle
         style="opacity:0.899123;fill:#00ffff;stroke:#00ffff;stroke-width:1.21016;stroke-linecap:round;stroke-dasharray:none"
         id="path735"
         cx="107.74128"
         cy="110.74015"
         r="4.4111128" /><path
         style="fill:#027aff;stroke:none;stroke-width:1.25405"
         d="m 105.02961,111.53901 c 0.0335,0.0797 0.11083,0.15359 0.17102,0.21379 0.30726,0.30722 0.81947,0.37777 1.20677,0.18411 0.18861,-0.0943 0.29857,-0.24329 0.43235,-0.3979 0.0339,0.0804 0.1103,0.15307 0.17103,0.21379 0.30934,0.30934 0.82809,0.37953 1.21625,0.17931 0.0949,-0.0489 0.18774,-0.11543 0.26089,-0.19357 0.0588,-0.0628 0.10437,-0.13645 0.16195,-0.19953 0.0329,0.0856 0.12067,0.16577 0.18529,0.22822 0.309,0.29852 0.82149,0.36115 1.20201,0.16488 0.095,-0.0489 0.18771,-0.11543 0.26087,-0.19357 0.0589,-0.0628 0.10433,-0.1364 0.16197,-0.19953 0.0266,0.0693 0.0955,0.13821 0.14727,0.19003 0.1575,0.15776 0.34465,0.26137 0.56537,0.29814 0.12168,0.0203 0.34069,0.0473 0.34046,-0.13661 -1e-4,-0.0675 -0.0492,-0.13376 -0.11717,-0.14571 -0.0681,-0.0119 -0.13629,-0.008 -0.2043,-0.0248 -0.17391,-0.0435 -0.32072,-0.15123 -0.44139,-0.28082 -0.0446,-0.0478 -0.0853,-0.10188 -0.12069,-0.15677 -0.0496,-0.0771 -0.0977,-0.16967 -0.20757,-0.14302 -0.0723,0.0176 -0.097,0.0761 -0.13326,0.13352 -0.0406,0.0641 -0.0875,0.1243 -0.13835,0.18053 -0.17061,0.18856 -0.40868,0.30217 -0.66433,0.28464 -0.22772,-0.0156 -0.43562,-0.16071 -0.57673,-0.33215 -0.0744,-0.0905 -0.14239,-0.29484 -0.28796,-0.2686 -0.0778,0.0141 -0.10457,0.0753 -0.14278,0.13558 -0.0393,0.0621 -0.0842,0.12121 -0.13358,0.17578 -0.1708,0.18885 -0.41524,0.31371 -0.67383,0.289 -0.22445,-0.0215 -0.41993,-0.15455 -0.56335,-0.32225 -0.0396,-0.0462 -0.0754,-0.096 -0.108,-0.14729 -0.0427,-0.067 -0.0777,-0.13589 -0.16958,-0.13282 -0.0879,0.003 -0.12067,0.0726 -0.16179,0.13758 -0.0404,0.0638 -0.0863,0.12513 -0.13795,0.18053 -0.17578,0.1887 -0.40127,0.29621 -0.65997,0.28489 -0.22671,-0.01 -0.43581,-0.16055 -0.57681,-0.32764 -0.0723,-0.0857 -0.13924,-0.2842 -0.27361,-0.27403 -0.0997,0.008 -0.12796,0.0872 -0.17743,0.16001 -0.0596,0.0876 -0.13105,0.17174 -0.21215,0.24021 -0.10637,0.0898 -0.22897,0.15934 -0.36583,0.18898 -0.0894,0.0194 -0.21044,-0.007 -0.26976,0.0792 -0.0532,0.0773 -0.02,0.19556 0.0703,0.22754 0.0835,0.0296 0.20067,0.004 0.28505,-0.0128 0.19344,-0.0387 0.37386,-0.13583 0.51176,-0.27732 0.062,-0.0635 0.10993,-0.13678 0.16765,-0.20348"
         id="path1105"
         sodipodi:nodetypes="ccccscsccccccccccccccccccccscsscccssccsscscc" /></g></g></svg>
