<?xml version="1.0" encoding="UTF-8" standalone="no"?>
<!-- Created with Inkscape (http://www.inkscape.org/) -->

<svg
   width="13.183326mm"
   height="14.251871mm"
   viewBox="0 0 13.183326 14.251871"
   version="1.1"
   id="svg5"
   xml:space="preserve"
   sodipodi:docname="Erosi칩n_costera_proyectada_60_a침os.svg"
   inkscape:version="1.2 (dc2aedaf03, 2022-05-15)"
   xmlns:inkscape="http://www.inkscape.org/namespaces/inkscape"
   xmlns:sodipodi="http://sodipodi.sourceforge.net/DTD/sodipodi-0.dtd"
   xmlns="http://www.w3.org/2000/svg"
   xmlns:svg="http://www.w3.org/2000/svg"><sodipodi:namedview
     id="namedview10"
     pagecolor="#ffffff"
     bordercolor="#111111"
     borderopacity="1"
     inkscape:showpageshadow="0"
     inkscape:pageopacity="0"
     inkscape:pagecheckerboard="1"
     inkscape:deskcolor="#d1d1d1"
     inkscape:document-units="mm"
     showgrid="false"
     inkscape:zoom="9.302101"
     inkscape:cx="9.2989745"
     inkscape:cy="25.908125"
     inkscape:window-width="1920"
     inkscape:window-height="1009"
     inkscape:window-x="-8"
     inkscape:window-y="-8"
     inkscape:window-maximized="1"
     inkscape:current-layer="layer1"
     showborder="true"
     showguides="true"><sodipodi:guide
       position="0,6.247089"
       orientation="0,-1"
       id="guide1258"
       inkscape:locked="false" /><sodipodi:guide
       position="0,14.251871"
       orientation="0,-1"
       id="guide1260"
       inkscape:locked="false" /><sodipodi:guide
       position="0,2.5413577"
       orientation="0,-1"
       id="guide1262"
       inkscape:locked="false" /><sodipodi:guide
       position="0,5.6839385"
       orientation="0,-1"
       id="guide1264"
       inkscape:locked="false" /><sodipodi:guide
       position="0,6.5487768"
       orientation="1,0"
       id="guide1266"
       inkscape:locked="false" /><sodipodi:guide
       position="13.183326,0"
       orientation="1,0"
       id="guide1268"
       inkscape:locked="false" /><sodipodi:guide
       position="0,0"
       orientation="0,-1"
       id="guide1282"
       inkscape:locked="false" /></sodipodi:namedview><defs
     id="defs2"><rect
       x="0"
       y="30.23622"
       width="49.826743"
       height="23.62912"
       id="rect1278" /><rect
       x="0"
       y="30.23622"
       width="49.826743"
       height="23.62912"
       id="rect1272" /><rect
       x="323.62149"
       y="418.40601"
       width="63.333512"
       height="33.610034"
       id="rect629-1" /></defs><g
     id="layer1"
     transform="translate(-101.28449,-105.24869)"
     style="display:inline"><text
       xml:space="preserve"
       transform="matrix(0.23851842,0,0,0.23851842,23.261812,13.588736)"
       id="text627-8"
       style="font-style:normal;font-variant:normal;font-weight:normal;font-stretch:normal;font-size:14.7904px;line-height:0.85;font-family:Montserrat;-inkscape-font-specification:'Montserrat, Normal';font-variant-ligatures:normal;font-variant-caps:normal;font-variant-numeric:normal;font-variant-east-asian:normal;text-align:center;letter-spacing:0px;word-spacing:0px;white-space:pre;shape-inside:url(#rect629-1);shape-padding:0;display:inline;fill:#000000;fill-opacity:1;stroke:none;stroke-width:1.10928"
       x="27.635864"
       y="0"><tspan
         x="333.12619"
         y="429.04193"
         id="tspan1420"><tspan
           style="font-size:11.8323px"
           id="tspan1416">Erosi칩n</tspan><tspan
           style="stroke-width:1.22658"
           id="tspan1418">
</tspan></tspan><tspan
         x="333.65863"
         y="441.61377"
         id="tspan1426"><tspan
           style="font-size:11.8323px"
           id="tspan1422">6</tspan><tspan
           style="font-size:11.8323px"
           id="tspan1424">0a침os</tspan></tspan></text><text
       xml:space="preserve"
       transform="matrix(0.26458333,0,0,0.26458333,101.28449,105.24869)"
       id="text1270"
       style="font-style:normal;font-weight:normal;font-size:8px;line-height:1.25;font-family:sans-serif;letter-spacing:0px;word-spacing:0px;white-space:pre;shape-inside:url(#rect1272);display:inline;fill:#000000;fill-opacity:1;stroke:none" /><g
       id="g2127"
       transform="matrix(0.79741784,0,0,0.79741784,30.678036,17.97607)"
       style="display:inline;stroke-width:1.25405"><circle
         style="display:inline;opacity:0.899123;fill:#d45500;fill-opacity:1;stroke:#d45500;stroke-width:1.21016;stroke-linecap:round;stroke-dasharray:none"
         id="path735-0"
         cx="96.940186"
         cy="114.46022"
         r="4.4111128" /><path
         style="display:inline;fill:#552200;stroke-width:1.25405"
         d="m 93.567967,114.46022 v -3.13508 l 0.362249,7.3e-4 0.362251,7.7e-4 0.5796,0.46187 c 0.31878,0.25405 0.58845,0.47062 0.59928,0.48128 0.0109,0.0109 -0.0342,0.28967 -0.10018,0.61999 l -0.11989,0.60057 0.2407,0.72209 c 0.20611,0.61853 0.248859,0.72395 0.29776,0.73517 0.0314,0.007 0.3001,0.0618 0.597139,0.12112 0.297051,0.0594 0.54655,0.11565 0.554451,0.12509 0.01,0.01 0.11948,0.28054 0.24778,0.60235 l 0.23346,0.58515 0.36471,0.2419 0.36475,0.24193 v 0.36507 0.36508 h -2.29206 -2.292041 z m 4.8212,3.12141 c 0,-0.007 0.0534,-0.11988 0.11865,-0.24976 0.0881,-0.17574 0.11852,-0.26652 0.11852,-0.35514 v -0.11907 h 0.11907 c 0.088,0 0.17574,0.029 0.33592,0.11072 0.145799,0.0744 0.26425,0.11551 0.36166,0.12509 l 0.144909,0.0137 0.007,0.10524 c 0.007,0.095 -0.007,0.11906 -0.12686,0.24368 l -0.13384,0.13838 h -0.47231 c -0.25979,0 -0.47237,-0.007 -0.47237,-0.0137 z m 1.686113,-0.36832 v -0.11865 h 0.11864 0.11852 v 0.11865 0.11866 h -0.11852 -0.11864 z m -1.211874,-0.71133 v -0.11852 h 0.11864 0.118521 v 0.11852 0.11852 h -0.118521 -0.11864 z m -0.948449,-0.47269 v -0.12016 h 0.12016 0.12015 l -0.01,0.11209 c -0.01,0.1114 -0.01,0.11209 -0.12016,0.12016 l -0.112069,0.01 z m 0.10523,-0.50207 c -0.10373,-0.1058 -0.12919,-0.11866 -0.235,-0.11866 -0.10401,0 -0.13276,-0.0137 -0.23163,-0.111 -0.0621,-0.0611 -0.1129,-0.12056 -0.1129,-0.13247 0,-0.0203 0.40189,-0.63624 0.44794,-0.68723 0.0109,-0.0109 0.12783,0.0326 0.26005,0.0991 l 0.24043,0.12084 v 0.11838 0.11838 h 0.11864 0.11852 v 0.2427 0.2427 l -0.11085,0.1129 c -0.10168,0.10374 -0.12166,0.1129 -0.24479,0.1129 -0.124,0 -0.14266,-0.01 -0.25028,-0.11851 z m -2.03613,-1.08332 c -0.0109,-0.0109 -0.0179,-0.0643 -0.0179,-0.11974 v -0.10101 h 0.13316 0.13316 l -0.01,0.11209 c -0.01,0.11044 -0.01,0.11209 -0.11454,0.11975 -0.0584,0.004 -0.114681,-6.7e-4 -0.12509,-0.0109 z m 0.71887,-0.3471 v -0.12618 l -0.23712,-0.11606 c -0.13057,-0.0639 -0.2371,-0.11989 -0.2371,-0.1244 0,-0.004 0.0534,-0.11482 0.11879,-0.24469 l 0.118799,-0.23641 0.23692,-0.11906 0.23693,-0.11907 0.237131,0.11907 0.237079,0.11906 v 0.36262 0.36264 l -0.250609,0.12439 c -0.17258,0.0857 -0.28335,0.1244 -0.35565,0.1244 h -0.10511 z m 1.211889,-0.25721 v -0.12016 l 0.112081,0.01 c 0.11141,0.01 0.11208,0.01 0.12016,0.12016 l 0.01,0.11208 h -0.12016 -0.12016 z m -2.186659,-0.47269 v -0.11866 h 0.11864 0.118519 v 0.11866 0.11851 h -0.118519 -0.11864 z m 0.2559,-0.84621 c -0.0109,-0.0109 -0.0179,-0.0643 -0.0179,-0.11975 v -0.101 h 0.13316 0.13316 l -0.01,0.11209 c -0.01,0.11044 -0.01,0.11208 -0.11454,0.11974 -0.0584,0.004 -0.11468,-6.4e-4 -0.12509,-0.0109 z"
         id="path2696-7" /></g></g></svg>
