<?xml version="1.0" encoding="UTF-8" standalone="no"?>
<!-- Created with Inkscape (http://www.inkscape.org/) -->

<svg
   width="15.604067mm"
   height="13.479379mm"
   viewBox="0 0 15.604067 13.479379"
   version="1.1"
   id="svg5"
   xml:space="preserve"
   sodipodi:docname="Inundación_Zona_A_Costera_Cauce_Mayor.svg"
   inkscape:version="1.2 (dc2aedaf03, 2022-05-15)"
   xmlns:inkscape="http://www.inkscape.org/namespaces/inkscape"
   xmlns:sodipodi="http://sodipodi.sourceforge.net/DTD/sodipodi-0.dtd"
   xmlns="http://www.w3.org/2000/svg"
   xmlns:svg="http://www.w3.org/2000/svg"><sodipodi:namedview
     id="namedview10"
     pagecolor="#ffffff"
     bordercolor="#111111"
     borderopacity="1"
     inkscape:showpageshadow="0"
     inkscape:pageopacity="0"
     inkscape:pagecheckerboard="1"
     inkscape:deskcolor="#d1d1d1"
     inkscape:document-units="mm"
     showgrid="false"
     inkscape:zoom="13.155157"
     inkscape:cx="27.023622"
     inkscape:cy="28.125851"
     inkscape:window-width="1920"
     inkscape:window-height="1009"
     inkscape:window-x="1912"
     inkscape:window-y="-8"
     inkscape:window-maximized="1"
     inkscape:current-layer="layer1"
     showborder="true"
     showguides="true"><sodipodi:guide
       position="1.2103708,5.4745967"
       orientation="0,-1"
       id="guide1258"
       inkscape:locked="false" /><sodipodi:guide
       position="1.2103708,13.479379"
       orientation="0,-1"
       id="guide1260"
       inkscape:locked="false" /><sodipodi:guide
       position="1.2103708,1.7688653"
       orientation="0,-1"
       id="guide1262"
       inkscape:locked="false" /><sodipodi:guide
       position="1.2103708,4.9114462"
       orientation="0,-1"
       id="guide1264"
       inkscape:locked="false" /><sodipodi:guide
       position="1.2103708,5.7762845"
       orientation="1,0"
       id="guide1266"
       inkscape:locked="false" /><sodipodi:guide
       position="14.393697,-0.77249248"
       orientation="1,0"
       id="guide1268"
       inkscape:locked="false" /><sodipodi:guide
       position="1.2103708,-0.77249248"
       orientation="0,-1"
       id="guide1282"
       inkscape:locked="false" /></sodipodi:namedview><defs
     id="defs2"><rect
       x="0"
       y="30.236219"
       width="49.826744"
       height="23.62912"
       id="rect1278" /><rect
       x="0"
       y="30.236219"
       width="49.826744"
       height="23.62912"
       id="rect1272" /><rect
       x="323.62149"
       y="418.40601"
       width="68.699776"
       height="32.894531"
       id="rect629-1" /><rect
       x="323.62149"
       y="418.40601"
       width="166.15341"
       height="56.900589"
       id="rect629-1-1" /></defs><g
     id="layer1"
     transform="translate(-100.07412,-105.24869)"
     style="display:inline"><text
       xml:space="preserve"
       transform="matrix(0.23851842,0,0,0.23851842,22.465324,13.853029)"
       id="text627-8"
       style="font-style:normal;font-variant:normal;font-weight:normal;font-stretch:normal;font-size:11.8323px;line-height:1;font-family:Montserrat;-inkscape-font-specification:'Montserrat, Normal';font-variant-ligatures:normal;font-variant-caps:normal;font-variant-numeric:normal;font-variant-east-asian:normal;text-align:center;letter-spacing:0px;word-spacing:0px;white-space:pre;shape-inside:url(#rect629-1);shape-padding:0;display:inline;fill:#000000;fill-opacity:1;stroke:none;stroke-width:1.10928"
       x="27.635864"
       y="0"><tspan
         x="324.02974"
         y="427.8022"
         id="tspan3684">Inundación
</tspan><tspan
         x="336.41817"
         y="439.63451"
         id="tspan3686">costera</tspan></text><text
       xml:space="preserve"
       transform="matrix(0.26458333,0,0,0.26458333,101.28449,105.24869)"
       id="text1270"
       style="font-style:normal;font-weight:normal;font-size:8px;line-height:1.25;font-family:sans-serif;letter-spacing:0px;word-spacing:0px;white-space:pre;shape-inside:url(#rect1272);display:inline;fill:#000000;fill-opacity:1;stroke:none" /><g
       id="g1705"
       transform="matrix(0.79741784,0,0,0.79741784,24.391563,21.565381)"
       style="display:inline;stroke-width:1.25405"><circle
         style="display:inline;opacity:0.899123;fill:#0000aa;fill-opacity:1;stroke:#0000aa;stroke-width:1.21016;stroke-linecap:round;stroke-dasharray:none"
         id="path735"
         cx="104.69366"
         cy="109.95905"
         r="4.4111128" /><path
         style="display:inline;fill:#80ffe6;stroke-width:1.25404"
         d="m 101.82333,112.5228 c -0.0406,-0.0517 -0.0741,-0.1218 -0.0741,-0.15577 0,-0.10183 0.13966,-0.24984 0.23572,-0.24984 0.12117,0 0.29726,-0.0782 0.59864,-0.26615 0.32644,-0.20344 0.51496,-0.2692 0.77168,-0.2692 0.25675,0 0.44524,0.0658 0.77168,0.2692 0.52089,0.32466 0.59236,0.32778 1.05276,0.0458 0.3932,-0.24087 0.59275,-0.31497 0.84821,-0.31497 0.26083,0 0.44813,0.065 0.77578,0.26922 0.3014,0.18785 0.47749,0.26613 0.59866,0.26613 0.0961,0 0.23573,0.14801 0.23573,0.24984 0,0.0339 -0.0333,0.10406 -0.0741,0.15577 -0.0632,0.0802 -0.10108,0.094 -0.25874,0.0933 -0.2134,-9.5e-4 -0.37541,-0.0674 -0.80101,-0.32832 -0.42041,-0.25781 -0.52351,-0.25548 -0.98244,0.0222 -0.42564,0.25751 -0.55348,0.30337 -0.85129,0.30534 -0.20613,10e-4 -0.2715,-0.0161 -0.49964,-0.13349 -0.14439,-0.0744 -0.34793,-0.18985 -0.45235,-0.25671 -0.28902,-0.18506 -0.45148,-0.17287 -0.83568,0.0627 -0.4256,0.26101 -0.58761,0.32741 -0.80101,0.32831 -0.15761,6.8e-4 -0.19567,-0.0126 -0.25875,-0.0933 z m 0,-1.60606 c -0.0406,-0.0517 -0.0741,-0.1218 -0.0741,-0.1558 0,-0.10182 0.13966,-0.2498 0.23572,-0.2498 0.12117,0 0.29726,-0.0782 0.59864,-0.26615 0.32644,-0.20344 0.51496,-0.26922 0.77168,-0.26922 0.25675,0 0.44524,0.0658 0.77168,0.26922 0.52089,0.32466 0.59236,0.32776 1.05276,0.0458 0.3932,-0.24085 0.59275,-0.31495 0.84821,-0.31495 0.26083,0 0.44813,0.065 0.77578,0.26922 0.3014,0.18786 0.47749,0.26614 0.59866,0.26614 0.0961,0 0.23573,0.14801 0.23573,0.24982 0,0.0339 -0.0333,0.10406 -0.0741,0.15579 -0.0632,0.0802 -0.10108,0.094 -0.25874,0.0933 -0.2134,-9.4e-4 -0.37541,-0.0673 -0.80101,-0.32831 -0.42041,-0.25781 -0.52351,-0.25549 -0.98244,0.0222 -0.42564,0.25752 -0.55348,0.30337 -0.85129,0.30532 -0.20613,10e-4 -0.2715,-0.0161 -0.49964,-0.1335 -0.14439,-0.0744 -0.34793,-0.18984 -0.45235,-0.2567 -0.28902,-0.18505 -0.45148,-0.17287 -0.83568,0.0627 -0.4256,0.26101 -0.58761,0.32741 -0.80101,0.3283 -0.15761,6.8e-4 -0.19567,-0.0127 -0.25875,-0.0933 z m 1.86837,-1.61247 c -0.15591,-0.0753 -0.22911,-0.13434 -0.26036,-0.20976 -0.0936,-0.22612 0.10311,-0.4272 0.3281,-0.33528 0.42472,0.17352 0.55666,0.17324 0.75583,-0.001 0.30977,-0.27199 0.18747,-0.81991 -0.20672,-0.92605 -0.15653,-0.0422 -0.41597,-7.1e-4 -0.60694,0.0969 -0.0628,0.0321 -0.33102,0.27835 -0.59602,0.54717 -0.51334,0.52072 -0.67679,0.62988 -1.00059,0.66823 -0.1509,0.0179 -0.18213,0.01 -0.26343,-0.0719 -0.0517,-0.0517 -0.0923,-0.1328 -0.0923,-0.18468 0,-0.1174 0.14812,-0.26769 0.26373,-0.26769 0.18094,0 0.30089,-0.0879 0.77128,-0.56539 0.59753,-0.6065 0.80061,-0.72461 1.2867,-0.7483 0.25763,-0.0126 0.33397,-0.002 0.48946,0.0644 0.2143,0.0922 0.47684,0.35502 0.5462,0.54686 0.0272,0.0753 0.0711,0.13111 0.10279,0.1307 0.0776,-0.001 0.30599,-0.10912 0.53712,-0.25398 0.38175,-0.23929 0.61861,-0.28802 0.94238,-0.19391 0.82636,0.24025 0.89872,1.37891 0.11051,1.73824 -0.2543,0.11603 -0.70397,0.075 -0.86938,-0.0791 -0.11288,-0.10523 -0.0939,-0.30272 0.0385,-0.40117 0.0957,-0.0711 0.10013,-0.0711 0.289,-0.007 0.18701,0.0635 0.1955,0.0635 0.33122,-0.002 0.41668,-0.20341 0.28138,-0.76337 -0.18454,-0.76381 -0.11176,-1.1e-4 -0.20423,0.0376 -0.39952,0.16247 -0.25512,0.16321 -0.58594,0.30137 -0.72167,0.30137 -0.0536,0 -0.0948,0.0501 -0.15644,0.18928 -0.10524,0.23775 -0.2713,0.42864 -0.47911,0.55043 -0.13,0.0761 -0.2175,0.0971 -0.45015,0.10786 -0.26134,0.0126 -0.30944,0.002 -0.50571,-0.0914 z"
         id="path1127" /></g></g></svg>
