<?xml version="1.0" encoding="UTF-8" standalone="no"?>
<!-- Created with Inkscape (http://www.inkscape.org/) -->

<svg
   width="15.604067mm"
   height="13.479379mm"
   viewBox="0 0 15.604067 13.479379"
   version="1.1"
   id="svg5"
   xml:space="preserve"
   sodipodi:docname="Inundación_AE.svg"
   inkscape:version="1.2 (dc2aedaf03, 2022-05-15)"
   xmlns:inkscape="http://www.inkscape.org/namespaces/inkscape"
   xmlns:sodipodi="http://sodipodi.sourceforge.net/DTD/sodipodi-0.dtd"
   xmlns="http://www.w3.org/2000/svg"
   xmlns:svg="http://www.w3.org/2000/svg"><sodipodi:namedview
     id="namedview10"
     pagecolor="#ffffff"
     bordercolor="#111111"
     borderopacity="1"
     inkscape:showpageshadow="0"
     inkscape:pageopacity="0"
     inkscape:pagecheckerboard="1"
     inkscape:deskcolor="#d1d1d1"
     inkscape:document-units="mm"
     showgrid="false"
     inkscape:zoom="13.155157"
     inkscape:cx="27.023622"
     inkscape:cy="28.125851"
     inkscape:window-width="1920"
     inkscape:window-height="1009"
     inkscape:window-x="1912"
     inkscape:window-y="-8"
     inkscape:window-maximized="1"
     inkscape:current-layer="layer1"
     showborder="true"
     showguides="true"><sodipodi:guide
       position="1.2103708,5.4745967"
       orientation="0,-1"
       id="guide1258"
       inkscape:locked="false" /><sodipodi:guide
       position="1.2103708,13.479379"
       orientation="0,-1"
       id="guide1260"
       inkscape:locked="false" /><sodipodi:guide
       position="1.2103708,1.7688653"
       orientation="0,-1"
       id="guide1262"
       inkscape:locked="false" /><sodipodi:guide
       position="1.2103708,4.9114462"
       orientation="0,-1"
       id="guide1264"
       inkscape:locked="false" /><sodipodi:guide
       position="1.2103708,5.7762845"
       orientation="1,0"
       id="guide1266"
       inkscape:locked="false" /><sodipodi:guide
       position="14.393697,-0.77249248"
       orientation="1,0"
       id="guide1268"
       inkscape:locked="false" /><sodipodi:guide
       position="1.2103708,-0.77249248"
       orientation="0,-1"
       id="guide1282"
       inkscape:locked="false" /></sodipodi:namedview><defs
     id="defs2"><rect
       x="0"
       y="30.236219"
       width="49.826744"
       height="23.62912"
       id="rect1278" /><rect
       x="0"
       y="30.236219"
       width="49.826744"
       height="23.62912"
       id="rect1272" /><rect
       x="323.62149"
       y="418.40601"
       width="68.699776"
       height="32.894531"
       id="rect629-1" /><rect
       x="323.62149"
       y="418.40601"
       width="166.15341"
       height="56.900589"
       id="rect629-1-1" /></defs><g
     id="layer1"
     transform="translate(-100.07412,-105.24869)"
     style="display:inline"><text
       xml:space="preserve"
       transform="matrix(0.23851842,0,0,0.23851842,22.465324,13.853029)"
       id="text627-8"
       style="font-style:normal;font-variant:normal;font-weight:normal;font-stretch:normal;font-size:11.8323px;line-height:1;font-family:Montserrat;-inkscape-font-specification:'Montserrat, Normal';font-variant-ligatures:normal;font-variant-caps:normal;font-variant-numeric:normal;font-variant-east-asian:normal;text-align:center;letter-spacing:0px;word-spacing:0px;white-space:pre;shape-inside:url(#rect629-1);shape-padding:0;display:inline;fill:#000000;fill-opacity:1;stroke:none;stroke-width:1.10928"
       x="27.635864"
       y="0"><tspan
         x="324.02974"
         y="427.8022"
         id="tspan3788">Inundación
</tspan><tspan
         x="335.05747"
         y="439.63451"
         id="tspan3790">riberina</tspan></text><text
       xml:space="preserve"
       transform="matrix(0.26458333,0,0,0.26458333,101.28449,105.24869)"
       id="text1270"
       style="font-style:normal;font-weight:normal;font-size:8px;line-height:1.25;font-family:sans-serif;letter-spacing:0px;word-spacing:0px;white-space:pre;shape-inside:url(#rect1272);display:inline;fill:#000000;fill-opacity:1;stroke:none" /><g
       id="g1525"
       style="display:inline;stroke-width:1.25405"
       transform="matrix(0.79741784,0,0,0.79741784,23.035329,19.731312)"><circle
         style="opacity:0.899123;fill:#aaffee;fill-opacity:1;stroke:#aaffee;stroke-width:1.21016;stroke-linecap:round;stroke-dasharray:none"
         id="path735-0"
         cx="106.39444"
         cy="112.25906"
         r="4.4111128" /><path
         style="fill:#0000aa;stroke-width:1.25405"
         d="m 106.06024,114.97896 c -0.23336,-0.23334 -0.0633,-0.59979 0.27826,-0.59979 0.14774,0 0.20078,-0.032 0.4116,-0.24858 0.13312,-0.13665 0.34165,-0.29595 0.46341,-0.35381 0.4405,-0.20933 0.86982,-0.0928 1.30475,0.35381 0.18142,0.18633 0.27339,0.24858 0.36733,0.24858 0.17013,0 0.34266,0.17836 0.34266,0.35425 0,0.0863 -0.0401,0.17703 -0.10862,0.24554 -0.22924,0.22926 -0.71746,0.077 -1.12469,-0.35076 -0.31841,-0.33449 -0.41191,-0.33449 -0.7252,0 -0.40796,0.4355 -0.96356,0.59666 -1.20944,0.35076 z m -2.38509,-0.17108 c -0.23067,-0.23067 -0.0747,-0.60582 0.25176,-0.60582 0.233,0 0.54122,-0.1244 0.70711,-0.2856 0.0832,-0.0809 0.27705,-0.35359 0.43058,-0.606 0.44136,-0.72558 0.66671,-0.9123 1.15435,-0.95652 0.68566,-0.0621 1.30922,0.4969 0.9523,0.85384 -0.14319,0.1432 -0.27879,0.13716 -0.51564,-0.0233 -0.39467,-0.26746 -0.56922,-0.1815 -0.98133,0.4832 -0.17469,0.28174 -0.39582,0.59726 -0.49137,0.70114 -0.24108,0.26203 -0.71984,0.49159 -1.09818,0.52656 -0.27606,0.0255 -0.30217,0.02 -0.40958,-0.0875 z m -0.006,-1.33442 c -0.10828,-0.10829 -0.10862,-0.11199 -0.10862,-1.01141 0,-0.98384 0.0357,-1.20167 0.24072,-1.47049 0.13934,-0.18268 1.9066,-1.37778 2.20518,-1.49123 0.26867,-0.10205 0.50735,-0.10205 0.77602,0 0.29859,0.11349 2.06587,1.30855 2.20519,1.49123 0.20505,0.26882 0.24071,0.48665 0.24071,1.47049 0,0.89939 -3.4e-4,0.90312 -0.10862,1.01141 -0.11785,0.11784 -0.31011,0.14135 -0.4265,0.0518 -0.15446,-0.11852 -0.17329,-0.23876 -0.17329,-1.1039 0,-0.71768 -0.0117,-0.87309 -0.0717,-0.95887 -0.0395,-0.0562 -0.48877,-0.37954 -0.99852,-0.71832 -0.65759,-0.43703 -0.96412,-0.61598 -1.05521,-0.61598 -0.0912,0 -0.39764,0.17895 -1.05521,0.61598 -0.50975,0.33878 -0.9591,0.66202 -0.99853,0.71832 -0.0605,0.0861 -0.0717,0.24457 -0.0717,1.00226 0,0.89642 -4e-4,0.90032 -0.10862,1.00859 -0.0685,0.0685 -0.15931,0.10862 -0.24554,0.10862 -0.0863,0 -0.17705,-0.0401 -0.24556,-0.10862 z"
         id="path1176" /></g></g></svg>
