<?xml version="1.0" encoding="UTF-8" standalone="no"?>
<!-- Created with Inkscape (http://www.inkscape.org/) -->

<svg
   width="13.516336mm"
   height="10.607725mm"
   viewBox="0 0 13.516337 10.607726"
   version="1.1"
   id="svg5"
   xml:space="preserve"
   sodipodi:docname="Licuación_Alto.svg"
   inkscape:version="1.2 (dc2aedaf03, 2022-05-15)"
   xmlns:inkscape="http://www.inkscape.org/namespaces/inkscape"
   xmlns:sodipodi="http://sodipodi.sourceforge.net/DTD/sodipodi-0.dtd"
   xmlns="http://www.w3.org/2000/svg"
   xmlns:svg="http://www.w3.org/2000/svg"><sodipodi:namedview
     id="namedview10"
     pagecolor="#ffffff"
     bordercolor="#111111"
     borderopacity="1"
     inkscape:showpageshadow="0"
     inkscape:pageopacity="0"
     inkscape:pagecheckerboard="1"
     inkscape:deskcolor="#d1d1d1"
     inkscape:document-units="mm"
     showgrid="false"
     inkscape:zoom="9.302101"
     inkscape:cx="16.071638"
     inkscape:cy="18.167939"
     inkscape:window-width="1920"
     inkscape:window-height="1009"
     inkscape:window-x="1912"
     inkscape:window-y="-8"
     inkscape:window-maximized="1"
     inkscape:current-layer="layer1"
     showborder="true"
     showguides="true"><sodipodi:guide
       position="0.10300608,2.6230556"
       orientation="0,-1"
       id="guide1258"
       inkscape:locked="false" /><sodipodi:guide
       position="0.10300608,10.627839"
       orientation="0,-1"
       id="guide1260"
       inkscape:locked="false" /><sodipodi:guide
       position="0.10300608,-1.0826761"
       orientation="0,-1"
       id="guide1262"
       inkscape:locked="false" /><sodipodi:guide
       position="0.10300608,2.0599051"
       orientation="0,-1"
       id="guide1264"
       inkscape:locked="false" /><sodipodi:guide
       position="0.10300608,2.9247434"
       orientation="1,0"
       id="guide1266"
       inkscape:locked="false" /><sodipodi:guide
       position="13.286333,-3.6240341"
       orientation="1,0"
       id="guide1268"
       inkscape:locked="false" /><sodipodi:guide
       position="0.10300608,-3.6240341"
       orientation="0,-1"
       id="guide1282"
       inkscape:locked="false" /></sodipodi:namedview><defs
     id="defs2"><rect
       x="0"
       y="30.236219"
       width="49.826744"
       height="23.62912"
       id="rect1278" /><rect
       x="0"
       y="30.236219"
       width="49.826744"
       height="23.62912"
       id="rect1272" /><rect
       x="323.62149"
       y="418.40601"
       width="65.480019"
       height="33.252281"
       id="rect629-1" /><rect
       x="323.62149"
       y="418.40601"
       width="73.119499"
       height="44.684135"
       id="rect629-1-8" /><rect
       x="323.62149"
       y="418.40601"
       width="73.119499"
       height="44.684135"
       id="rect629-1-3" /><rect
       x="323.62149"
       y="418.40601"
       width="73.119499"
       height="44.684135"
       id="rect629-1-6" /></defs><g
     id="layer1"
     transform="translate(-101.18148,-105.2688)"
     style="display:inline"><text
       xml:space="preserve"
       transform="matrix(0.26458333,0,0,0.26458333,101.28449,105.24869)"
       id="text1270"
       style="font-style:normal;font-weight:normal;font-size:8px;line-height:1.25;font-family:sans-serif;letter-spacing:0px;word-spacing:0px;white-space:pre;shape-inside:url(#rect1272);display:inline;fill:#000000;fill-opacity:1;stroke:none" /><text
       xml:space="preserve"
       transform="matrix(0.21753053,0,0,0.20190281,30.450058,28.88655)"
       id="text627-8"
       style="font-style:normal;font-variant:normal;font-weight:normal;font-stretch:normal;font-size:13.4667px;line-height:1.25;font-family:Montserrat;-inkscape-font-specification:'Montserrat, Normal';font-variant-ligatures:normal;font-variant-caps:normal;font-variant-numeric:normal;font-variant-east-asian:normal;letter-spacing:0px;word-spacing:0px;white-space:pre;shape-inside:url(#rect629-1-6);display:inline;fill:#000000;fill-opacity:1;stroke:none;stroke-width:1.2625"><tspan
         x="323.62109"
         y="430.78341"
         id="tspan3181">Licuación</tspan></text><g
       id="g1906"
       transform="matrix(0.79741784,0,0,0.79741784,21.283547,21.125469)"
       style="display:inline;stroke-width:1.25405"><circle
         style="display:inline;opacity:0.899123;fill:#8080ff;fill-opacity:1;stroke:#8080ff;stroke-width:1.21016;stroke-linecap:round;stroke-dasharray:none"
         id="path735"
         cx="108.67088"
         cy="110.53594"
         r="4.4111128" /><path
         style="display:inline;fill:#4400aa;stroke-width:1.25405"
         d="m 105.12425,113.72055 -0.0428,-0.0428 v -0.20847 -0.20848 l 0.16482,0.009 c 0.21997,0.0126 0.73352,0.0605 1.13911,0.10617 0.77625,0.0874 1.48755,0.20668 1.99252,0.33403 l 0.19778,0.0499 -1.70429,0.002 -1.70429,0.002 z m 4.27918,-0.0111 c -0.0604,-0.0283 -0.22526,-0.09 -0.36627,-0.13705 -0.69401,-0.23165 -1.66807,-0.41337 -2.90088,-0.54119 -0.24847,-0.0258 -0.98224,-0.0883 -1.03586,-0.0883 -0.0143,0 -0.019,-0.0358 -0.019,-0.14391 v -0.14391 l 0.26005,-0.018 c 1.09864,-0.0762 1.91323,-0.0571 2.43986,0.0571 0.0708,0.0153 0.18697,0.0512 0.25821,0.0797 0.15955,0.0638 0.20542,0.0654 0.26817,0.009 0.0383,-0.0342 0.0475,-0.0536 0.0475,-0.10005 0,-0.079 -0.0357,-0.12667 -0.127,-0.16983 -0.28293,-0.13368 -0.7032,-0.20411 -1.3702,-0.22961 -0.45245,-0.0173 -1.26746,0.008 -1.69236,0.0525 l -0.0842,0.009 v -0.30178 -0.30178 h 0.34574 c 0.38789,0 0.42477,-0.008 0.46625,-0.0949 0.0287,-0.0605 0.0287,-0.072 0,-0.13249 -0.0415,-0.0874 -0.0784,-0.0949 -0.46625,-0.0949 h -0.34574 v -0.33844 -0.33843 l 0.0498,-0.0498 c 0.0595,-0.0595 0.037,-0.0583 0.53622,-0.0276 1.29478,0.0798 2.12137,0.22903 2.50617,0.45262 0.18622,0.1082 0.23892,0.11873 0.58517,0.11689 0.2297,-0.001 0.37615,-0.0109 0.62266,-0.0413 0.39024,-0.0481 0.85941,-0.0654 1.02938,-0.0381 0.14105,0.0227 0.26158,0.0673 0.38464,0.14238 0.12846,0.0784 0.17525,0.0924 0.3081,0.0924 0.13792,0 0.2419,-0.0302 0.5052,-0.14668 0.24448,-0.10817 0.32497,-0.13169 0.45059,-0.13169 0.0957,0 0.10413,0.003 0.15118,0.0498 l 0.0498,0.0498 v 0.18989 0.1899 l -0.22343,0.0618 c -0.61697,0.17073 -1.09081,0.36225 -1.20993,0.48905 -0.0786,0.0837 -0.0427,0.22777 0.064,0.25724 0.0611,0.0169 0.10228,0.005 0.17369,-0.0493 0.0661,-0.0504 0.26188,-0.13856 0.47046,-0.2118 0.20031,-0.0703 0.7123,-0.22381 0.72022,-0.21588 0.003,0.003 0.004,0.36673 0.001,0.80855 l -0.004,0.8033 -0.0824,-0.10944 c -0.32363,-0.42999 -0.77916,-0.74434 -1.07984,-0.74516 -0.121,-3.3e-4 -0.18657,0.11919 -0.12776,0.2329 0.0219,0.0423 0.0649,0.0653 0.15452,0.0827 0.16684,0.0323 0.36874,0.15789 0.56403,0.35085 0.11092,0.1096 0.29328,0.32665 0.33542,0.39924 0.008,0.0145 -0.14063,0.0181 -0.72644,0.0172 -0.58128,-8.8e-4 -0.72743,-0.005 -0.69147,-0.0183 0.1593,-0.0601 0.2551,-0.20117 0.25442,-0.37467 -0.001,-0.34088 -0.41709,-0.50846 -0.65966,-0.26589 -0.19496,0.19496 -0.13498,0.5152 0.1179,0.62954 l 0.0659,0.0298 -0.4322,-8.9e-4 -0.4322,-8.8e-4 -0.10988,-0.0515 z m 0.0669,-0.29449 c 0.13794,-0.0704 0.21929,-0.21565 0.20871,-0.37255 -0.007,-0.10857 -0.0384,-0.17973 -0.1096,-0.25092 -0.0712,-0.0712 -0.14235,-0.10227 -0.25092,-0.1096 -0.35776,-0.0241 -0.55078,0.40323 -0.29681,0.65719 0.0376,0.0376 0.0975,0.079 0.13341,0.0922 0.0871,0.0319 0.23585,0.0242 0.31521,-0.0163 z m -0.23542,-0.20756 c -0.0489,-0.02 -0.0826,-0.0686 -0.091,-0.13112 -0.007,-0.0533 -0.003,-0.0646 0.0437,-0.11101 0.0426,-0.0427 0.0624,-0.0517 0.11288,-0.0517 0.0862,0 0.14685,0.0607 0.14685,0.14685 0,0.0501 -0.009,0.0703 -0.0498,0.111 -0.0509,0.0509 -0.0998,0.0617 -0.16263,0.036 z m -2.17452,-0.19014 c 0.0343,-0.0343 0.0428,-0.0554 0.0425,-0.10622 -7.5e-4,-0.14659 -0.1547,-0.21164 -0.25752,-0.10881 -0.10283,0.10283 -0.0378,0.25678 0.10881,0.25753 0.0508,2.6e-4 0.0719,-0.008 0.10622,-0.0425 z m 3.00214,-0.35999 c 0.0581,-0.03 0.0881,-0.0774 0.0881,-0.13926 0,-0.10699 -0.0669,-0.15283 -0.24174,-0.16573 -0.32723,-0.0241 -0.73088,-0.1335 -1.48706,-0.40287 -1.07298,-0.38223 -1.56014,-0.51234 -1.94768,-0.52017 l -0.13486,-0.003 -0.0429,0.0478 c -0.0588,0.0656 -0.0593,0.14577 -0.001,0.21063 0.0401,0.0448 0.047,0.0469 0.19524,0.0575 0.39745,0.0284 0.88372,0.16366 1.90224,0.52925 0.70656,0.25361 1.04679,0.34375 1.50171,0.39784 0.0944,0.0112 0.12756,0.009 0.16833,-0.0123 z m 0.32436,-0.39663 c 0.0535,-0.0277 0.0915,-0.10931 0.0785,-0.16863 -0.0136,-0.062 -0.0852,-0.11609 -0.15359,-0.11609 -0.0662,0 -0.13808,0.0523 -0.15288,0.11132 -0.0147,0.0584 0.0178,0.13622 0.0701,0.16813 0.056,0.0341 0.0992,0.0356 0.15787,0.005 z m -4.69717,-0.0734 c 0.0447,-0.0212 0.0949,-0.0942 0.0949,-0.13805 0,-0.01 -0.0104,-0.0395 -0.0231,-0.0662 -0.0282,-0.0595 -0.10697,-0.10085 -0.16697,-0.0877 -0.0541,0.0119 -0.11312,0.0709 -0.125,0.125 -0.0128,0.0585 0.028,0.13816 0.0854,0.16644 0.0587,0.029 0.0747,0.029 0.1348,5.3e-4 z m 1.01009,0.002 c 0.0515,-0.0215 0.0957,-0.0863 0.0957,-0.14033 0,-0.0907 -0.10279,-0.17309 -0.19158,-0.15359 -0.10208,0.0224 -0.15058,0.16438 -0.0848,0.24806 0.0517,0.0658 0.10229,0.0786 0.18061,0.0459 z m 3.65988,1.28772 c -0.0467,-0.0467 -0.0509,-0.0575 -0.0436,-0.11212 0.0105,-0.0786 0.0609,-0.12897 0.13951,-0.13951 0.0546,-0.007 0.0654,-0.003 0.11211,0.0436 0.0426,0.0427 0.0517,0.0624 0.0517,0.11288 0,0.0481 -0.009,0.0704 -0.0428,0.10402 -0.0337,0.0337 -0.0559,0.0428 -0.10403,0.0428 -0.0505,0 -0.0702,-0.009 -0.11288,-0.0517 z m 0.65531,-2.41462 c -0.0202,-0.0107 -0.0701,-0.0402 -0.11104,-0.0656 -0.1596,-0.0989 -0.38405,-0.15748 -0.66614,-0.17377 l -0.15452,-0.009 -0.0713,-0.41182 c -0.0964,-0.5571 -0.10474,-0.59426 -0.14189,-0.63381 -0.0175,-0.0187 -0.0523,-0.0376 -0.0772,-0.042 -0.026,-0.005 -0.25481,0.0293 -0.53608,0.0795 -0.48318,0.0862 -0.49143,0.0882 -0.53109,0.13258 -0.0288,0.0322 -0.0403,0.0607 -0.0402,0.0998 6e-5,0.0301 0.033,0.23931 0.0732,0.46493 0.0402,0.22562 0.0731,0.41615 0.0732,0.42339 1.2e-4,0.0168 -0.31166,6.5e-4 -0.38162,-0.0198 -0.10312,-0.0301 -0.10163,-0.0258 -0.1951,-0.5628 -0.0473,-0.27178 -0.0822,-0.49796 -0.0776,-0.50261 0.0135,-0.0136 3.35644,-0.6012 3.36731,-0.59194 0.0103,0.009 0.27584,1.50223 0.27584,1.55143 0,0.0194 -0.0132,0.0309 -0.0419,0.0366 -0.023,0.005 -0.14177,0.0513 -0.26386,0.10386 -0.32834,0.14124 -0.41993,0.16338 -0.50005,0.12088 z m -0.23442,-0.41247 c 0.20548,-0.0362 0.39204,-0.0734 0.41458,-0.0826 0.0469,-0.0193 0.0836,-0.0805 0.0836,-0.13977 0,-0.0655 -0.13239,-0.79977 -0.15144,-0.8399 -0.01,-0.0202 -0.0404,-0.0489 -0.0685,-0.0639 l -0.0511,-0.0273 -0.42218,0.0754 c -0.2322,0.0414 -0.43465,0.0831 -0.4499,0.0927 -0.0152,0.01 -0.0388,0.038 -0.0525,0.0632 -0.0239,0.0444 -0.0224,0.059 0.044,0.44005 0.079,0.45311 0.0857,0.47854 0.13639,0.51844 0.0525,0.0413 0.0927,0.0385 0.51707,-0.0363 z m -0.29972,-0.30413 c -0.0245,-0.11132 -0.0675,-0.38327 -0.0637,-0.40298 0.003,-0.0181 0.0549,-0.0326 0.22429,-0.063 0.12087,-0.0217 0.221,-0.0385 0.22251,-0.0374 0.007,0.005 0.081,0.45014 0.0759,0.45518 -0.005,0.005 -0.41663,0.0811 -0.4404,0.0811 -0.006,0 -0.0146,-0.0148 -0.0186,-0.033 z m -1.33403,0.54129 c -0.0118,-0.0344 -0.12759,-0.71506 -0.12236,-0.71892 0.003,-0.002 0.1306,-0.0254 0.2837,-0.0515 0.1531,-0.0262 0.28865,-0.0505 0.30123,-0.054 0.0191,-0.005 0.0339,0.0562 0.0907,0.37787 0.0373,0.21137 0.0654,0.38677 0.0624,0.38979 -0.003,0.003 -0.11966,0.0177 -0.25922,0.0327 -0.13955,0.015 -0.27551,0.0305 -0.30212,0.0344 -0.0301,0.004 -0.0506,5.2e-4 -0.0543,-0.0104 z m -1.66392,-0.32353 c -0.0121,-0.0113 -0.43592,-0.0829 -0.64307,-0.10874 l -0.2121,-0.0264 -0.029,-0.0496 c -0.0573,-0.0981 -0.0302,-0.28702 0.0566,-0.39556 0.01,-0.0121 0.0255,-0.0714 0.0353,-0.13185 0.0428,-0.26568 0.20024,-0.43046 0.41256,-0.43166 0.16693,-9.5e-4 0.30462,0.0902 0.41534,0.27482 0.028,0.0467 0.0778,0.1044 0.11075,0.12824 0.24746,0.17927 0.22239,0.51213 -0.0524,0.69585 -0.0777,0.0519 -0.0835,0.0547 -0.094,0.045 z m -1.41828,-0.1865 c -0.0756,-0.007 -0.13958,-0.0142 -0.14207,-0.0166 -0.002,-0.002 0.0411,-0.26144 0.0969,-0.57546 0.0558,-0.31402 0.10159,-0.58195 0.10178,-0.59541 2.2e-4,-0.0157 -0.0164,-0.0281 -0.0465,-0.0348 -0.089,-0.0195 -0.28253,-0.11126 -0.40067,-0.18986 -0.2331,-0.1551 -0.40217,-0.37902 -0.45477,-0.60231 -0.076,-0.3225 0.0972,-0.70178 0.42818,-0.93798 0.0717,-0.0512 0.0932,-0.0749 0.0932,-0.10294 0,-0.0658 0.074,-0.25961 0.13506,-0.35378 0.081,-0.12477 0.1999,-0.22785 0.34109,-0.29557 0.13765,-0.066 0.23316,-0.0882 0.37798,-0.0879 0.51623,0.001 0.92202,0.4684 0.84543,0.97365 l -0.0164,0.10793 0.0504,0.0708 c 0.29239,0.41052 0.27732,0.88732 -0.0375,1.18565 -0.20701,0.19619 -0.47135,0.29392 -0.83175,0.30753 -0.0927,0.004 -0.17049,0.0123 -0.17295,0.0196 -0.002,0.007 -0.049,0.26556 -0.1034,0.57395 -0.0544,0.3084 -0.10515,0.56184 -0.11275,0.56321 -0.008,0.001 -0.0757,-0.003 -0.15135,-0.01 z m 1.62979,-0.81766 c -0.0579,-0.0353 -0.0861,-0.11088 -0.0636,-0.17016 0.0153,-0.0403 1.56681,-2.26709 1.6656,-2.3906 0.0587,-0.0734 0.12307,-0.0926 0.19148,-0.0572 0.0616,0.0318 2.34578,1.63054 2.3944,1.67582 0.0218,0.0203 0.0436,0.055 0.0484,0.0772 0.0112,0.051 -0.0244,0.13831 -0.0653,0.16021 -0.0253,0.0135 -4.06057,0.73308 -4.11013,0.73289 -0.008,-2e-5 -0.0356,-0.0127 -0.061,-0.0282 z"
         id="path685" /></g></g></svg>
