<?xml version="1.0" encoding="UTF-8" standalone="no"?>
<!-- Created with Inkscape (http://www.inkscape.org/) -->

<svg
   width="11.875913mm"
   height="10.726085mm"
   viewBox="0 0 11.875913 10.726085"
   version="1.1"
   id="svg5"
   xml:space="preserve"
   sodipodi:docname="tsunami_desalojo.svg"
   inkscape:version="1.2 (dc2aedaf03, 2022-05-15)"
   xmlns:inkscape="http://www.inkscape.org/namespaces/inkscape"
   xmlns:sodipodi="http://sodipodi.sourceforge.net/DTD/sodipodi-0.dtd"
   xmlns="http://www.w3.org/2000/svg"
   xmlns:svg="http://www.w3.org/2000/svg"><sodipodi:namedview
     id="namedview10"
     pagecolor="#ffffff"
     bordercolor="#111111"
     borderopacity="1"
     inkscape:showpageshadow="0"
     inkscape:pageopacity="0"
     inkscape:pagecheckerboard="1"
     inkscape:deskcolor="#d1d1d1"
     inkscape:document-units="mm"
     showgrid="false"
     inkscape:zoom="9.3021007"
     inkscape:cx="26.391888"
     inkscape:cy="25.263111"
     inkscape:window-width="1920"
     inkscape:window-height="1009"
     inkscape:window-x="1912"
     inkscape:window-y="-8"
     inkscape:window-maximized="1"
     inkscape:current-layer="layer1"
     showborder="true"
     showguides="true"><sodipodi:guide
       position="-0.68122301,2.7213022"
       orientation="0,-1"
       id="guide1258"
       inkscape:locked="false" /><sodipodi:guide
       position="-0.68122301,10.726084"
       orientation="0,-1"
       id="guide1260"
       inkscape:locked="false" /><sodipodi:guide
       position="-0.68122301,-0.98442921"
       orientation="0,-1"
       id="guide1262"
       inkscape:locked="false" /><sodipodi:guide
       position="-0.68122301,2.1581517"
       orientation="0,-1"
       id="guide1264"
       inkscape:locked="false" /><sodipodi:guide
       position="-0.68122301,3.02299"
       orientation="1,0"
       id="guide1266"
       inkscape:locked="false" /><sodipodi:guide
       position="12.502103,-3.525787"
       orientation="1,0"
       id="guide1268"
       inkscape:locked="false" /><sodipodi:guide
       position="-0.68122301,-3.525787"
       orientation="0,-1"
       id="guide1282"
       inkscape:locked="false" /></sodipodi:namedview><defs
     id="defs2"><rect
       x="0"
       y="30.236219"
       width="49.826744"
       height="23.62912"
       id="rect1278" /><rect
       x="0"
       y="30.236219"
       width="49.826744"
       height="23.62912"
       id="rect1272" /><rect
       x="323.62149"
       y="418.40601"
       width="65.480019"
       height="33.252281"
       id="rect629-1" /><rect
       x="323.62149"
       y="418.40601"
       width="73.119499"
       height="44.684135"
       id="rect629-1-8" /></defs><g
     id="layer1"
     transform="translate(-101.96572,-105.24869)"
     style="display:inline"><text
       xml:space="preserve"
       transform="matrix(0.23851842,0,0,0.23851842,23.015001,14.133625)"
       id="text627-8"
       style="font-style:normal;font-variant:normal;font-weight:normal;font-stretch:normal;font-size:11.8323px;line-height:0.85;font-family:Montserrat;-inkscape-font-specification:'Montserrat, Normal';font-variant-ligatures:normal;font-variant-caps:normal;font-variant-numeric:normal;font-variant-east-asian:normal;text-align:center;letter-spacing:0px;word-spacing:0px;white-space:pre;shape-inside:url(#rect629-1);shape-padding:0;display:inline;fill:#000000;fill-opacity:1;stroke:none;stroke-width:1.10928"
       x="27.635864"
       y="0"><tspan
         x="330.95738"
         y="426.91478"
         id="tspan427">Tsunami</tspan></text><text
       xml:space="preserve"
       transform="matrix(0.26458333,0,0,0.26458333,101.28449,105.24869)"
       id="text1270"
       style="font-style:normal;font-weight:normal;font-size:8px;line-height:1.25;font-family:sans-serif;letter-spacing:0px;word-spacing:0px;white-space:pre;shape-inside:url(#rect1272);display:inline;fill:#000000;fill-opacity:1;stroke:none" /><g
       id="g2341"
       transform="matrix(0.79741784,0,0,0.79741784,21.678516,20.901235)"
       style="display:inline;stroke-width:1.25405"><circle
         style="opacity:0.899123;fill:#800000;stroke:#800000;stroke-width:1.21016;stroke-linecap:round;stroke-dasharray:none"
         id="path735"
         cx="108.13046"
         cy="110.79192"
         r="4.4111128" /><path
         style="fill:#f4d7d7;stroke-width:1.25405"
         d="m 104.01948,112.73764 c -0.0683,-0.042 -0.10944,-0.11509 -0.10953,-0.19577 -5e-5,-0.0718 0.004,-0.0824 0.31527,-0.62125 0.0785,-0.13732 0.19946,-0.34496 0.26775,-0.46146 0.0681,-0.1166 0.15479,-0.26627 0.19216,-0.33281 0.0366,-0.0667 0.10357,-0.18231 0.14824,-0.25721 0.0438,-0.075 0.12179,-0.209 0.17223,-0.29799 0.10296,-0.18204 0.25579,-0.36307 0.53296,-0.63307 0.28821,-0.28077 0.62444,-0.53004 0.97351,-0.72171 0.13688,-0.0752 0.47362,-0.21331 0.65054,-0.26696 0.60616,-0.18375 1.37685,-0.17205 1.80856,0.0271 0.31499,0.14556 0.53057,0.34646 0.67057,0.62486 0.0916,0.1817 0.0824,0.23243 -0.0255,0.1381 -0.14028,-0.12322 -0.37615,-0.18822 -0.62298,-0.17172 -0.0868,0.005 -0.18032,0.0122 -0.20659,0.0131 -0.0263,9.6e-4 -0.0446,0.005 -0.0423,0.009 0.003,0.004 -0.028,0.025 -0.0701,0.0443 -0.0922,0.0431 -0.25993,0.21527 -0.32174,0.33021 -0.11365,0.21195 -0.11365,0.45822 0,0.66919 0.11237,0.20892 0.49953,0.52728 0.77846,0.64099 0.38814,0.15823 1.00733,0.19664 1.81416,0.11225 0.14686,-0.0155 0.59096,-0.0786 0.68262,-0.0984 0.0364,-0.007 0.0475,0.003 0.15235,0.1855 0.0616,0.10682 0.16631,0.28558 0.23182,0.3979 0.066,0.11201 0.14753,0.2553 0.18218,0.31771 0.0346,0.062 0.0841,0.15093 0.11022,0.19669 0.0794,0.14109 0.0564,0.27619 -0.0613,0.34802 -0.049,0.0302 -0.0845,0.0306 -4.11144,0.0306 -4.02672,0 -4.06252,-2.8e-4 -4.1114,-0.0306 z"
         id="path1248" /></g></g></svg>
