<svg width="9328" height="5220" xmlns="http://www.w3.org/2000/svg" xmlns:xlink="http://www.w3.org/1999/xlink" xml:space="preserve" overflow="hidden"><defs><clipPath id="clip0"><rect x="737" y="637" width="9328" height="5220"/></clipPath><clipPath id="clip1"><rect x="1191" y="1470" width="864" height="865"/></clipPath><clipPath id="clip2"><rect x="1191" y="1470" width="864" height="865"/></clipPath><clipPath id="clip3"><rect x="1191" y="1470" width="864" height="865"/></clipPath><clipPath id="clip4"><rect x="1263" y="2686" width="766" height="764"/></clipPath><clipPath id="clip5"><rect x="1263" y="2686" width="766" height="764"/></clipPath><clipPath id="clip6"><rect x="1263" y="2686" width="766" height="764"/></clipPath><clipPath id="clip7"><rect x="1234" y="3843" width="777" height="777"/></clipPath><clipPath id="clip8"><rect x="1234" y="3843" width="777" height="777"/></clipPath><clipPath id="clip9"><rect x="1234" y="3843" width="777" height="777"/></clipPath><clipPath id="clip10"><rect x="1210" y="4961" width="814" height="814"/></clipPath><clipPath id="clip11"><rect x="1210" y="4961" width="814" height="814"/></clipPath><clipPath id="clip12"><rect x="1210" y="4961" width="814" height="814"/></clipPath></defs><g clip-path="url(#clip0)" transform="translate(-737 -637)"><path d="M883 1591.5C883 1505.07 953.069 1435 1039.5 1435L2251.5 1435C2337.93 1435 2408 1505.07 2408 1591.5L2408 2217.5C2408 2303.93 2337.93 2374 2251.5 2374L1039.5 2374C953.069 2374 883 2303.93 883 2217.5Z" stroke="#004C62" stroke-width="27.5" stroke-linecap="butt" stroke-linejoin="miter" stroke-miterlimit="8" stroke-opacity="1" fill="#004C62" fill-rule="evenodd" fill-opacity="1"/><text fill="#004C62" fill-opacity="1" font-family="Century Gothic,Century Gothic_MSFontService,sans-serif" font-style="normal" font-variant="normal" font-weight="700" font-stretch="normal" font-size="297" text-anchor="start" direction="ltr" writing-mode="lr-tb" unicode-bidi="normal" text-decoration="none" transform="matrix(1 0 0 1 916.479 1023)">¿Qué otras características tienen los hitos costeros?</text><path d="M2715 1591.5C2715 1505.07 2785.07 1435 2871.5 1435L9893.5 1435C9979.93 1435 10050 1505.07 10050 1591.5L10050 2217.5C10050 2303.93 9979.93 2374 9893.5 2374L2871.5 2374C2785.07 2374 2715 2303.93 2715 2217.5Z" stroke="#004C62" stroke-width="27.5" stroke-linecap="butt" stroke-linejoin="miter" stroke-miterlimit="8" stroke-opacity="1" fill="#004C62" fill-rule="evenodd" fill-opacity="1"/><text fill="#FFFFFF" fill-opacity="1" font-family="Century Gothic,Century Gothic_MSFontService,sans-serif" font-style="normal" font-variant="normal" font-weight="700" font-stretch="normal" font-size="248" text-anchor="start" direction="ltr" writing-mode="lr-tb" unicode-bidi="normal" text-decoration="none" transform="matrix(1 0 0 1 3053.94 1996)">262 </text><text fill="#FFFFFF" fill-opacity="1" font-family="Century Gothic,Century Gothic_MSFontService,sans-serif" font-style="normal" font-variant="normal" font-weight="400" font-stretch="normal" font-size="248" text-anchor="start" direction="ltr" writing-mode="lr-tb" unicode-bidi="normal" text-decoration="none" transform="matrix(1 0 0 1 3539.2 1996)">hitos cuentan con estacionamientos.</text><g clip-path="url(#clip1)"><g clip-path="url(#clip2)"><g clip-path="url(#clip3)"><path d="M647.25 476.448C602.567 476.448 566.344 512.671 566.344 557.354 566.344 602.038 602.567 638.261 647.25 638.261 691.934 638.261 728.156 602.038 728.156 557.354 728.111 512.69 691.915 476.493 647.25 476.448ZM647.25 620.281C612.496 620.281 584.323 592.108 584.323 557.354 584.323 522.601 612.496 494.427 647.25 494.427 682.004 494.427 710.177 522.601 710.177 557.354 710.177 592.108 682.004 620.281 647.25 620.281Z" stroke="#FFFFFF" stroke-width="8.98962" stroke-linecap="butt" stroke-linejoin="miter" stroke-miterlimit="4" stroke-opacity="1" fill="#FFFFFF" fill-rule="nonzero" fill-opacity="1" transform="matrix(1.00116 0 0 1 1191 1471)"/><path d="M312.936 539.528C314.041 545.406 314.61 551.373 314.635 557.354L314.635 557.507 548.419 557.507 548.419 557.354C548.444 551.373 549.013 545.406 550.118 539.528Z" stroke="#FFFFFF" stroke-width="8.98962" stroke-linecap="butt" stroke-linejoin="miter" stroke-miterlimit="4" stroke-opacity="1" fill="#FFFFFF" fill-rule="nonzero" fill-opacity="1" transform="matrix(1.00116 0 0 1 1191 1471)"/><path d="M737.146 395.542C776.865 395.542 809.063 427.74 809.063 467.458L809.063 521.54C809.063 531.47 801.013 539.519 791.083 539.519L744.455 539.519C745.554 545.401 746.117 551.371 746.136 557.354L746.136 557.507 791.083 557.507C810.916 557.443 826.978 541.382 827.042 521.549L827.042 467.611C826.903 417.961 786.706 377.735 737.056 377.563L662.532 377.563C652.979 377.87 643.775 373.961 637.362 366.874L524.093 254.504C510.49 240.999 492.018 233.546 472.852 233.828L323.958 233.828C323.841 233.828 323.742 233.765 323.625 233.765 323.508 233.765 323.418 233.828 323.301 233.828L209.457 233.828C190.324 233.72 171.917 241.147 158.217 254.504L46.7458 366.874C39.7566 373.737 35.8619 383.149 35.9583 392.944L35.9583 485.536C36.0866 525.202 68.2098 557.325 107.875 557.453L116.865 557.453 116.865 557.354C116.887 551.374 117.453 545.406 118.555 539.528L107.875 539.528C78.0861 539.528 53.9375 515.379 53.9375 485.59L53.9375 395.542ZM511.453 267.242 622.637 377.563 332.615 377.563 332.615 251.771 472.852 251.771C487.285 251.477 501.219 257.062 511.453 267.242ZM170.946 267.188C181.254 257.182 195.092 251.643 209.457 251.771L314.635 251.771 314.635 377.563 61.6955 377.563C61.5697 377.563 61.5427 377.491 61.6236 377.41Z" stroke="#FFFFFF" stroke-width="8.98962" stroke-linecap="butt" stroke-linejoin="miter" stroke-miterlimit="4" stroke-opacity="1" fill="#FFFFFF" fill-rule="nonzero" fill-opacity="1" transform="matrix(1.00116 0 0 1 1191 1471)"/><path d="M215.75 476.448C171.066 476.448 134.844 512.671 134.844 557.354 134.844 602.038 171.066 638.261 215.75 638.261 260.434 638.261 296.656 602.038 296.656 557.354 296.611 512.69 260.415 476.493 215.75 476.448ZM215.75 620.281C180.996 620.281 152.823 592.108 152.823 557.354 152.823 522.601 180.996 494.427 215.75 494.427 250.504 494.427 278.677 522.601 278.677 557.354 278.677 592.108 250.504 620.281 215.75 620.281Z" stroke="#FFFFFF" stroke-width="8.98962" stroke-linecap="butt" stroke-linejoin="miter" stroke-miterlimit="4" stroke-opacity="1" fill="#FFFFFF" fill-rule="nonzero" fill-opacity="1" transform="matrix(1.00116 0 0 1 1191 1471)"/></g></g></g><path d="M883 2757.5C883 2671.07 953.069 2601 1039.5 2601L2251.5 2601C2337.93 2601 2408 2671.07 2408 2757.5L2408 3383.5C2408 3469.93 2337.93 3540 2251.5 3540L1039.5 3540C953.069 3540 883 3469.93 883 3383.5Z" stroke="#004C62" stroke-width="27.5" stroke-linecap="butt" stroke-linejoin="miter" stroke-miterlimit="8" stroke-opacity="1" fill="#004C62" fill-rule="evenodd" fill-opacity="1"/><path d="M2715 2757.5C2715 2671.07 2785.07 2601 2871.5 2601L9893.5 2601C9979.93 2601 10050 2671.07 10050 2757.5L10050 3383.5C10050 3469.93 9979.93 3540 9893.5 3540L2871.5 3540C2785.07 3540 2715 3469.93 2715 3383.5Z" stroke="#004C62" stroke-width="27.5" stroke-linecap="butt" stroke-linejoin="miter" stroke-miterlimit="8" stroke-opacity="1" fill="#004C62" fill-rule="evenodd" fill-opacity="1"/><text fill="#FFFFFF" fill-opacity="1" font-family="Century Gothic,Century Gothic_MSFontService,sans-serif" font-style="normal" font-variant="normal" font-weight="700" font-stretch="normal" font-size="220" text-anchor="start" direction="ltr" writing-mode="lr-tb" unicode-bidi="normal" text-decoration="none" transform="matrix(1 0 0 1 3053.94 3017)">207 </text><text fill="#FFFFFF" fill-opacity="1" font-family="Century Gothic,Century Gothic_MSFontService,sans-serif" font-style="normal" font-variant="normal" font-weight="400" font-stretch="normal" font-size="220" text-anchor="start" direction="ltr" writing-mode="lr-tb" unicode-bidi="normal" text-decoration="none" transform="matrix(1 0 0 1 3484.77 3017)">hitos quedan ubicados cerca de algún paseo, vereda </text><text fill="#FFFFFF" fill-opacity="1" font-family="Century Gothic,Century Gothic_MSFontService,sans-serif" font-style="normal" font-variant="normal" font-weight="400" font-stretch="normal" font-size="220" text-anchor="start" direction="ltr" writing-mode="lr-tb" unicode-bidi="normal" text-decoration="none" transform="matrix(1 0 0 1 3053.94 3318)">o malecón.</text><path d="M883 3907.5C883 3821.07 953.069 3751 1039.5 3751L2251.5 3751C2337.93 3751 2408 3821.07 2408 3907.5L2408 4533.5C2408 4619.93 2337.93 4690 2251.5 4690L1039.5 4690C953.069 4690 883 4619.93 883 4533.5Z" stroke="#004C62" stroke-width="27.5" stroke-linecap="butt" stroke-linejoin="miter" stroke-miterlimit="8" stroke-opacity="1" fill="#004C62" fill-rule="evenodd" fill-opacity="1"/><path d="M2715 3907.5C2715 3821.07 2785.07 3751 2871.5 3751L9893.5 3751C9979.93 3751 10050 3821.07 10050 3907.5L10050 4533.5C10050 4619.93 9979.93 4690 9893.5 4690L2871.5 4690C2785.07 4690 2715 4619.93 2715 4533.5Z" stroke="#004C62" stroke-width="27.5" stroke-linecap="butt" stroke-linejoin="miter" stroke-miterlimit="8" stroke-opacity="1" fill="#004C62" fill-rule="evenodd" fill-opacity="1"/><text fill="#FFFFFF" fill-opacity="1" font-family="Century Gothic,Century Gothic_MSFontService,sans-serif" font-style="normal" font-variant="normal" font-weight="700" font-stretch="normal" font-size="220" text-anchor="start" direction="ltr" writing-mode="lr-tb" unicode-bidi="normal" text-decoration="none" transform="matrix(1 0 0 1 3053.94 4167)">194 </text><text fill="#FFFFFF" fill-opacity="1" font-family="Century Gothic,Century Gothic_MSFontService,sans-serif" font-style="normal" font-variant="normal" font-weight="400" font-stretch="normal" font-size="220" text-anchor="start" direction="ltr" writing-mode="lr-tb" unicode-bidi="normal" text-decoration="none" transform="matrix(1 0 0 1 3484.77 4167)">hitos quedan ubicados dentro de algún área </text><text fill="#FFFFFF" fill-opacity="1" font-family="Century Gothic,Century Gothic_MSFontService,sans-serif" font-style="normal" font-variant="normal" font-weight="400" font-stretch="normal" font-size="220" text-anchor="start" direction="ltr" writing-mode="lr-tb" unicode-bidi="normal" text-decoration="none" transform="matrix(1 0 0 1 8379.2 4167)">protegida</text><text fill="#FFFFFF" fill-opacity="1" font-family="Century Gothic,Century Gothic_MSFontService,sans-serif" font-style="normal" font-variant="normal" font-weight="400" font-stretch="normal" font-size="220" text-anchor="start" direction="ltr" writing-mode="lr-tb" unicode-bidi="normal" text-decoration="none" transform="matrix(1 0 0 1 3053.94 4468)">por </text><text fill="#FFFFFF" fill-opacity="1" font-family="Century Gothic,Century Gothic_MSFontService,sans-serif" font-style="normal" font-variant="normal" font-weight="400" font-stretch="normal" font-size="220" text-anchor="start" direction="ltr" writing-mode="lr-tb" unicode-bidi="normal" text-decoration="none" transform="matrix(1 0 0 1 3475.03 4468)">su valor natural o histórico.</text><g clip-path="url(#clip4)"><g clip-path="url(#clip5)"><g clip-path="url(#clip6)"><path d="M660.542 429.75 580.958 350.167 389.958 350.167 389.958 71.625C389.958 67.2297 386.395 63.6666 382 63.6666 377.605 63.6666 374.042 67.2297 374.042 71.625L374.042 159.167 183.042 159.167 103.458 238.75 183.042 318.333 374.042 318.333 374.042 700.333 389.958 700.333 389.958 509.333 580.958 509.333ZM189.631 302.417 125.964 238.75 189.631 175.083 374.042 175.083 374.042 302.417ZM389.958 493.417 389.958 366.083 574.369 366.083 638.035 429.75 574.369 493.417Z" stroke="#FFFFFF" stroke-width="7.95849" stroke-linecap="butt" stroke-linejoin="miter" stroke-miterlimit="4" stroke-opacity="1" fill="#FFFFFF" fill-rule="nonzero" fill-opacity="1" transform="matrix(1 0 0 1 1264 2686)"/></g></g></g><g clip-path="url(#clip7)"><g clip-path="url(#clip8)"><g clip-path="url(#clip9)"><path d="M1899.45 4108.29C1888.51 4074.47 1864.36 4046.5 1832.5 4030.75 1832.47 4030.73 1832.45 4030.7 1832.46 4030.67 1832.77 4027.51 1832.94 4024.31 1832.94 4021.06 1832.98 3967.46 1789.57 3923.98 1735.97 3923.94 1719.21 3923.92 1702.73 3928.25 1688.14 3936.5 1659.4 3891.31 1599.46 3877.97 1554.27 3906.71 1533.32 3920.03 1518.28 3940.88 1512.24 3964.96 1465.65 3934.18 1402.93 3947 1372.15 3993.59 1349.34 4028.12 1349.87 4073.07 1373.5 4107.05 1309.22 4126.03 1272.49 4193.52 1291.47 4257.8 1310.45 4322.08 1377.94 4358.81 1442.22 4339.83 1446.62 4338.54 1450.93 4336.99 1455.15 4335.21L1478.29 4353.28C1493 4363.97 1507.12 4375.48 1520.56 4387.74L1528.07 4394.34C1552.04 4415.31 1565.81 4445.59 1565.84 4477.44L1565.84 4539.06C1565.84 4552.47 1554.97 4563.34 1541.56 4563.34L1525.81 4563.34C1521.74 4563.25 1518.2 4566.09 1517.39 4570.08 1516.64 4574.49 1519.61 4578.67 1524.02 4579.42 1524.47 4579.49 1524.92 4579.53 1525.38 4579.53L1678.72 4579.53C1682.79 4579.62 1686.34 4576.79 1687.14 4572.8 1687.89 4568.39 1684.92 4564.21 1680.51 4563.46 1680.06 4563.38 1679.61 4563.34 1679.16 4563.34L1662.97 4563.34C1649.56 4563.34 1638.69 4552.47 1638.69 4539.06L1638.69 4469.71C1638.65 4437.12 1657.19 4407.36 1686.46 4393.02 1727.15 4372.79 1780.67 4339.83 1808.84 4308.01L1826.58 4288.13C1875.72 4309.54 1932.92 4287.06 1954.33 4237.92 1975.74 4188.78 1953.26 4131.59 1904.12 4110.18 1902.58 4109.51 1901.03 4108.88 1899.45 4108.29ZM1796.74 4297.25C1770.06 4327.4 1716.77 4359.87 1679.26 4378.53 1644.47 4395.58 1622.44 4430.97 1622.5 4469.71L1622.5 4539.06C1622.53 4547.85 1625.45 4556.38 1630.8 4563.34L1573.73 4563.34C1579.08 4556.38 1582 4547.85 1582.03 4539.06L1582.03 4477.44C1582 4440.93 1566.22 4406.21 1538.74 4382.17L1531.26 4375.59C1517.51 4363.05 1503.06 4351.27 1488 4340.33L1471.02 4327.06C1476.77 4323.57 1482.22 4319.61 1487.32 4315.21 1513.87 4331.03 1538.28 4350.19 1559.95 4372.22L1573.94 4387.08 1573.94 4366.67C1574.13 4339.55 1569.29 4312.64 1559.65 4287.3 1564.39 4287.86 1569.16 4288.15 1573.94 4288.16 1577.7 4288.16 1581.41 4287.93 1585.09 4287.61 1590.72 4304.67 1594.6 4322.26 1596.66 4340.11L1601.15 4377.61 1612.42 4341.56C1620.61 4315.63 1631.23 4290.52 1644.13 4266.58 1656.45 4258.21 1667.2 4247.73 1675.88 4235.63 1679 4239.13 1682.29 4242.47 1685.76 4245.62 1659.83 4281.72 1642.16 4331.34 1630.97 4366.65L1623.34 4390.72 1643.54 4375.57C1666.24 4360.31 1690.19 4347.03 1715.15 4335.87 1742.35 4323.31 1765.86 4303.97 1783.42 4279.7 1791.07 4279.12 1798.65 4277.89 1806.09 4276.03L1806.16 4276.04C1808.04 4277.5 1809.99 4278.86 1811.98 4280.18ZM1517.37 4275.81C1517.68 4275.13 1517.85 4274.74 1517.85 4274.74 1517.85 4274.74 1521.81 4276.56 1522.45 4276.85 1528.05 4279.38 1533.83 4281.49 1539.73 4283.18 1540.13 4283.3 1540.32 4283.33 1540.32 4283.33 1549.49 4303.26 1555.09 4324.66 1556.86 4346.53 1538.89 4330.53 1519.57 4316.13 1499.11 4303.48 1506.42 4295.13 1512.57 4285.82 1517.37 4275.81ZM1601.29 4285.1C1607.47 4283.73 1613.54 4281.89 1619.44 4279.59 1615.17 4288.62 1611.12 4297.88 1607.43 4307.21 1605.7 4299.53 1603.58 4292.22 1601.29 4285.1ZM1763.02 4279.45C1747.95 4297.24 1729.18 4311.54 1708.01 4321.34 1691.86 4329.13 1671.46 4338.99 1653.65 4349.56 1664.22 4316.38 1679.26 4284.8 1698.35 4255.68 1717.38 4269.26 1739.72 4277.47 1763.02 4279.45ZM1876.35 4279.33C1854.88 4282.3 1833.13 4276.48 1816.01 4263.19L1809.84 4258.44 1809.77 4258.42 1802.21 4260.31C1760.51 4270.99 1716.34 4257.3 1688 4224.89L1685.33 4221.88 1689.04 4216.83C1691.52 4213.6 1691.33 4209.06 1688.58 4206.06 1685.47 4202.85 1680.35 4202.77 1677.14 4205.89 1676.81 4206.2 1676.52 4206.54 1676.25 4206.91L1667.22 4219.41C1667.22 4219.41 1663.24 4225.35 1662.74 4226.18 1662.74 4226.18 1662.36 4226.71 1662.17 4226.96 1641.61 4255.16 1608.84 4271.88 1573.94 4271.97 1556.98 4271.98 1540.26 4267.99 1525.13 4260.34 1525.13 4260.34 1520.31 4258.33 1515.51 4255.89 1513.02 4254.63 1510.24 4252.97 1510.24 4252.97L1505.47 4250.1C1502.03 4247.92 1497.53 4248.53 1494.78 4251.53 1491.87 4254.92 1492.25 4260.04 1495.65 4262.95 1495.99 4263.25 1496.36 4263.52 1496.75 4263.75L1503.33 4267.72 1503.23 4267.95C1478.62 4320.56 1416.03 4343.26 1363.42 4318.66 1310.81 4294.05 1288.11 4231.46 1312.71 4178.85 1325.45 4151.6 1349.26 4131.11 1378.1 4122.57L1384.28 4120.74 1393.9 4131.47C1396.76 4134.67 1401.63 4135.07 1404.98 4132.38 1408.49 4129.28 1408.82 4123.91 1405.71 4120.4 1405.67 4120.35 1405.63 4120.3 1405.58 4120.25L1391.42 4104.46 1387.94 4099.47C1378.84 4086.73 1373.29 4071.8 1371.86 4056.2 1368.15 4009.35 1403.13 3968.36 1449.99 3964.65 1457.12 3964.09 1464.29 3964.43 1471.33 3965.66 1483.21 3967.83 1494.5 3972.45 1504.49 3979.23L1509.03 3982.23 1507.53 3996.54C1507 4000.98 1510.15 4005.01 1514.59 4005.59 1514.91 4005.63 1515.24 4005.65 1515.57 4005.65 1519.71 4005.64 1523.18 4002.51 1523.61 3998.4L1525.83 3977.24 1527.47 3970.73C1535.61 3936.86 1564.18 3911.78 1598.81 3908.09 1629.02 3905.25 1658.26 3919.59 1674.5 3945.21L1674.6 3945.37 1663.74 3952.12C1660.06 3954.29 1658.6 3958.88 1660.35 3962.78 1662.31 3966.8 1667.15 3968.47 1671.17 3966.51 1671.42 3966.39 1671.66 3966.26 1671.89 3966.11L1691.48 3953.43C1692.26 3952.94 1695.33 3951.02 1695.33 3951.02 1733.85 3928.56 1783.3 3941.58 1805.76 3980.11 1813.01 3992.54 1816.8 4006.68 1816.75 4021.06 1816.75 4023.67 1816.61 4026.38 1816.35 4029.13L1815.25 4040.21C1815.25 4040.24 1815.27 4040.28 1815.3 4040.29L1825.27 4045.23C1850.25 4057.65 1869.93 4078.66 1880.69 4104.39L1875.3 4103.04C1871.38 4101.96 1867.24 4103.84 1865.48 4107.51 1863.68 4111.6 1865.54 4116.38 1869.63 4118.18 1870.04 4118.37 1870.48 4118.51 1870.92 4118.63L1899.24 4125.75C1939.8 4144.48 1957.5 4192.54 1938.77 4233.11 1927.2 4258.15 1903.68 4275.57 1876.35 4279.33Z" stroke="#FFFFFF" stroke-width="8.09367" stroke-linecap="butt" stroke-linejoin="miter" stroke-miterlimit="4" stroke-opacity="1" fill="#FFFFFF" fill-rule="nonzero" fill-opacity="1"/></g></g></g><path d="M883 5057.5C883 4971.07 953.069 4901 1039.5 4901L2251.5 4901C2337.93 4901 2408 4971.07 2408 5057.5L2408 5683.5C2408 5769.93 2337.93 5840 2251.5 5840L1039.5 5840C953.069 5840 883 5769.93 883 5683.5Z" stroke="#004C62" stroke-width="27.5" stroke-linecap="butt" stroke-linejoin="miter" stroke-miterlimit="8" stroke-opacity="1" fill="#004C62" fill-rule="evenodd" fill-opacity="1"/><path d="M2715 5057.5C2715 4971.07 2785.07 4901 2871.5 4901L9893.5 4901C9979.93 4901 10050 4971.07 10050 5057.5L10050 5683.5C10050 5769.93 9979.93 5840 9893.5 5840L2871.5 5840C2785.07 5840 2715 5769.93 2715 5683.5Z" stroke="#004C62" stroke-width="27.5" stroke-linecap="butt" stroke-linejoin="miter" stroke-miterlimit="8" stroke-opacity="1" fill="#004C62" fill-rule="evenodd" fill-opacity="1"/><text fill="#FFFFFF" fill-opacity="1" font-family="Century Gothic,Century Gothic_MSFontService,sans-serif" font-style="normal" font-variant="normal" font-weight="700" font-stretch="normal" font-size="220" text-anchor="start" direction="ltr" writing-mode="lr-tb" unicode-bidi="normal" text-decoration="none" transform="matrix(1 0 0 1 3053.94 5317)">4</text><text fill="#FFFFFF" fill-opacity="1" font-family="Century Gothic,Century Gothic_MSFontService,sans-serif" font-style="normal" font-variant="normal" font-weight="700" font-stretch="normal" font-size="220" text-anchor="start" direction="ltr" writing-mode="lr-tb" unicode-bidi="normal" text-decoration="none" transform="matrix(1 0 0 1 3177.12 5317)">2</text><text fill="#FFFFFF" fill-opacity="1" font-family="Century Gothic,Century Gothic_MSFontService,sans-serif" font-style="normal" font-variant="normal" font-weight="400" font-stretch="normal" font-size="220" text-anchor="start" direction="ltr" writing-mode="lr-tb" unicode-bidi="normal" text-decoration="none" transform="matrix(1 0 0 1 3361.6 5317)">hitos </text><text fill="#FFFFFF" fill-opacity="1" font-family="Century Gothic,Century Gothic_MSFontService,sans-serif" font-style="normal" font-variant="normal" font-weight="400" font-stretch="normal" font-size="220" text-anchor="start" direction="ltr" writing-mode="lr-tb" unicode-bidi="normal" text-decoration="none" transform="matrix(1 0 0 1 3904.15 5317)">quedan ubicados en áreas que reciben una alta </text><text fill="#FFFFFF" fill-opacity="1" font-family="Century Gothic,Century Gothic_MSFontService,sans-serif" font-style="normal" font-variant="normal" font-weight="400" font-stretch="normal" font-size="220" text-anchor="start" direction="ltr" writing-mode="lr-tb" unicode-bidi="normal" text-decoration="none" transform="matrix(1 0 0 1 3053.94 5618)">frecuencia de visitas.</text><g clip-path="url(#clip10)"><g clip-path="url(#clip11)"><g clip-path="url(#clip12)"><path d="M1616.43 5079.71C1557.59 5079.64 1502.58 5108.89 1469.74 5157.72 1436.73 5206.43 1429.75 5268.26 1451.09 5323.1L1531.64 5501.22 1601.17 5647.06C1605.5 5655.49 1615.85 5658.81 1624.28 5654.47 1627.46 5652.84 1630.06 5650.24 1631.69 5647.06L1701.22 5501.22 1781.78 5323.1C1803.1 5268.27 1796.13 5206.46 1763.12 5157.76 1730.29 5108.92 1675.28 5079.65 1616.43 5079.71ZM1766.12 5316.6 1685.92 5493.94 1616.54 5639.49 1616.31 5639.49 1547.08 5494.25 1466.73 5316.6C1447.59 5267.01 1453.97 5211.19 1483.81 5167.2 1533.19 5093.95 1632.61 5074.61 1705.85 5124 1722.93 5135.51 1737.63 5150.22 1749.13 5167.31 1778.91 5211.29 1785.26 5267.06 1766.12 5316.6Z" stroke="#FFFFFF" stroke-width="8.47905" stroke-linecap="butt" stroke-linejoin="miter" stroke-miterlimit="4" stroke-opacity="1" fill="#FFFFFF" fill-rule="nonzero" fill-opacity="1"/><path d="M1616.43 5181.46C1574.29 5181.46 1540.12 5215.62 1540.12 5257.77 1540.12 5299.92 1574.29 5334.08 1616.43 5334.08 1658.58 5334.08 1692.74 5299.92 1692.74 5257.77 1692.91 5215.79 1659.02 5181.63 1617.04 5181.46 1616.84 5181.46 1616.64 5181.46 1616.43 5181.46ZM1616.43 5317.17C1583.65 5317.17 1557.08 5290.59 1557.08 5257.81 1557.08 5225.03 1583.65 5198.46 1616.43 5198.46 1649.21 5198.46 1675.79 5225.03 1675.79 5257.81 1676.14 5290.25 1650.14 5316.83 1617.7 5317.19 1617.28 5317.2 1616.85 5317.2 1616.43 5317.19Z" stroke="#FFFFFF" stroke-width="8.47905" stroke-linecap="butt" stroke-linejoin="miter" stroke-miterlimit="4" stroke-opacity="1" fill="#FFFFFF" fill-rule="nonzero" fill-opacity="1"/></g></g></g></g></svg>